<svg viewBox="0 0 326 326" fill="none" xmlns="http://www.w3.org/2000/svg">
    <path fill-rule="evenodd" clip-rule="evenodd" d="M71.7964 128.466C68.6409 131.625 68.6408 136.748 71.7964 139.907L94.3244 162.463V194.357C94.3244 198.825 97.9421 202.447 102.405 202.447H134.259L156.787 225.003C159.942 228.163 165.059 228.163 168.214 225.003L190.742 202.447H222.599C227.062 202.447 230.68 198.825 230.68 194.357V162.46L253.205 139.907C256.36 136.748 256.36 131.625 253.205 128.466L230.68 105.913V74.0129C230.68 69.5447 227.062 65.9226 222.599 65.9226H190.739L168.214 43.3696C165.059 40.2101 159.942 40.2101 156.787 43.3696L134.262 65.9226H102.405C97.9421 65.9226 94.3244 69.5447 94.3244 74.0129V105.91L71.7964 128.466ZM117.448 179.295V152.873L98.7839 134.186L117.448 115.499V89.0745H143.84L162.5 70.3906L181.161 89.0745H207.556V115.503L226.217 134.186L207.556 152.87V179.295H181.164L162.5 197.982L143.837 179.295H117.448Z" fill="currentcolor" />
    <path d="M67 224.942C67 221.746 69.5881 219.154 72.7808 219.154H84.2313C87.4239 219.154 90.0121 221.746 90.0121 224.942V236.671C90.0121 239.868 87.4239 242.459 84.2313 242.459H72.7808C69.5882 242.459 67 239.868 67 236.671V224.942Z" fill="currentcolor" />
    <path d="M91.1628 266.891C91.1628 263.694 93.7509 261.103 96.9436 261.103H228.057C231.249 261.103 233.837 263.694 233.837 266.891V279.785C233.837 282.982 231.249 285.573 228.057 285.573H96.9436C93.7509 285.573 91.1628 282.982 91.1628 279.785V266.891Z" fill="currentcolor" />
    <path d="M115.353 219.154C112.161 219.154 109.572 221.746 109.572 224.942V236.671C109.572 239.868 112.161 242.459 115.353 242.459H126.804C129.996 242.459 132.584 239.868 132.584 236.671V224.942C132.584 221.746 129.996 219.154 126.804 219.154H115.353Z" fill="currentcolor" />
    <path d="M192.416 224.942C192.416 221.746 195.004 219.154 198.196 219.154H209.647C212.839 219.154 215.428 221.746 215.428 224.942V236.671C215.428 239.868 212.839 242.459 209.647 242.459H198.196C195.004 242.459 192.416 239.868 192.416 236.671V224.942Z" fill="currentcolor" />
    <path d="M240.769 219.154C237.576 219.154 234.988 221.746 234.988 224.942V236.671C234.988 239.868 237.576 242.459 240.769 242.459H252.219C255.412 242.459 258 239.868 258 236.671V224.942C258 221.746 255.412 219.154 252.219 219.154H240.769Z" fill="currentcolor" />
</svg>