<svg viewBox="0 0 326 326" fill="none" xmlns="http://www.w3.org/2000/svg">
    <path d="M67 224.714C67 221.522 69.5881 218.933 72.7808 218.933H84.2313C87.4239 218.933 90.0121 221.522 90.0121 224.714V236.429C90.0121 239.621 87.4239 242.209 84.2313 242.209H72.7808C69.5882 242.209 67 239.621 67 236.429V224.714Z" fill="currentcolor" />
    <path d="M91.1628 266.611C91.1628 263.418 93.7509 260.83 96.9436 260.83H228.057C231.249 260.83 233.837 263.418 233.837 266.611V279.489C233.837 282.682 231.249 285.27 228.057 285.27H96.9436C93.7509 285.27 91.1628 282.682 91.1628 279.489V266.611Z" fill="currentcolor" />
    <path d="M115.353 218.933C112.161 218.933 109.572 221.522 109.572 224.714V236.429C109.572 239.621 112.161 242.209 115.353 242.209H126.804C129.996 242.209 132.584 239.621 132.584 236.429V224.714C132.584 221.522 129.996 218.933 126.804 218.933H115.353Z" fill="currentcolor" />
    <path d="M192.416 224.714C192.416 221.522 195.004 218.933 198.196 218.933H209.647C212.839 218.933 215.428 221.522 215.428 224.714V236.429C215.428 239.621 212.839 242.209 209.647 242.209H198.196C195.004 242.209 192.416 239.621 192.416 236.429V224.714Z" fill="currentcolor" />
    <path d="M240.769 218.933C237.576 218.933 234.988 221.522 234.988 224.714V236.429C234.988 239.621 237.576 242.209 240.769 242.209H252.219C255.412 242.209 258 239.621 258 236.429V224.714C258 221.522 255.412 218.933 252.219 218.933H240.769Z" fill="currentcolor" />
    <path d="M67 184.354C67 181.161 69.5881 178.573 72.7808 178.573H84.2313C87.4239 178.573 90.0121 181.161 90.0121 184.354V196.068C90.0121 199.261 87.4239 201.849 84.2313 201.849H72.7808C69.5882 201.849 67 199.261 67 196.068V184.354Z" fill="currentcolor" />
    <path d="M240.769 178.573C237.576 178.573 234.988 181.161 234.988 184.354V196.068C234.988 199.261 237.576 201.849 240.769 201.849H252.219C255.412 201.849 258 199.261 258 196.068V184.354C258 181.161 255.412 178.573 252.219 178.573H240.769Z" fill="currentcolor" />
    <path fill-rule="evenodd" clip-rule="evenodd" d="M229.931 173.079C236.78 167.353 240.738 158.885 240.738 149.957V41H127.143C103.456 41 84.2545 60.2017 84.2545 83.8882V150.091C84.2545 158.942 88.145 167.345 94.8937 173.071L156.706 225.518C159.717 228.073 164.13 228.089 167.16 225.557L229.931 173.079ZM107.437 137.209V153.311H162.027L217.556 153.208V137.209H107.437ZM217.556 114.026V64.1828H207.123V92.0022C207.123 98.4039 201.934 103.594 195.532 103.594C189.13 103.594 183.94 98.4039 183.94 92.0022V64.1828H173.508V72.2968C173.508 78.6985 168.319 83.8882 161.917 83.8882C155.515 83.8882 150.325 78.6985 150.325 72.2968V64.1828H127.143C116.26 64.1828 107.437 73.0052 107.437 83.8882V114.026H217.556Z" fill="currentcolor" />
</svg>