<svg viewBox="0 0 326 326" fill="none" xmlns="http://www.w3.org/2000/svg">
    <path d="M67 225.115C67 221.915 69.5938 219.321 72.7934 219.321H84.2688C87.4684 219.321 90.0622 221.915 90.0622 225.115V236.854C90.0622 240.054 87.4684 242.648 84.2688 242.648H72.7934C69.5938 242.648 67 240.054 67 236.854V225.115Z" fill="currentcolor" />
    <path d="M91.2154 267.103C91.2154 263.903 93.8092 261.309 97.0088 261.309H228.407C231.607 261.309 234.201 263.903 234.201 267.103V280.009C234.201 283.208 231.607 285.802 228.407 285.802H97.0088C93.8092 285.802 91.2154 283.208 91.2154 280.009V267.103Z" fill="currentcolor" />
    <path d="M115.458 219.321C112.259 219.321 109.665 221.915 109.665 225.115V236.854C109.665 240.054 112.259 242.648 115.458 242.648H126.934C130.133 242.648 132.727 240.054 132.727 236.854V225.115C132.727 221.915 130.133 219.321 126.934 219.321H115.458Z" fill="currentcolor" />
    <path d="M192.689 225.115C192.689 221.915 195.283 219.321 198.482 219.321H209.958C213.157 219.321 215.751 221.915 215.751 225.115V236.854C215.751 240.054 213.157 242.648 209.958 242.648H198.482C195.283 242.648 192.689 240.054 192.689 236.854V225.115Z" fill="currentcolor" />
    <path d="M241.147 219.321C237.948 219.321 235.354 221.915 235.354 225.115V236.854C235.354 240.054 237.948 242.648 241.147 242.648H252.623C255.822 242.648 258.416 240.054 258.416 236.854V225.115C258.416 221.915 255.822 219.321 252.623 219.321H241.147Z" fill="currentcolor" />
    <path d="M67 184.666C67 181.467 69.5938 178.873 72.7934 178.873H84.2688C87.4684 178.873 90.0622 181.467 90.0622 184.666V196.406C90.0622 199.606 87.4684 202.199 84.2688 202.199H72.7934C69.5938 202.199 67 199.606 67 196.406V184.666Z" fill="currentcolor" />
    <path d="M241.147 178.873C237.948 178.873 235.354 181.467 235.354 184.666V196.406C235.354 199.606 237.948 202.199 241.147 202.199H252.623C255.822 202.199 258.416 199.606 258.416 196.406V184.666C258.416 181.467 255.822 178.873 252.623 178.873H241.147Z" fill="currentcolor" />
    <path fill-rule="evenodd" clip-rule="evenodd" d="M108.32 64.2817V153.389L162.212 199.257L216.638 153.291L217.067 64.2817H108.32ZM102.591 41H222.825C232.351 41 240.06 48.87 240.013 58.5469L239.542 156.118C239.517 161.277 237.248 166.161 233.342 169.459L165.832 226.477C163.703 228.275 160.612 228.269 158.49 226.462L91.5523 169.491C87.6543 166.173 85.4025 161.272 85.4025 156.106V58.4613C85.4025 48.8177 93.098 41 102.591 41Z" fill="currentcolor" />
</svg>