<svg viewBox="0 0 48 48" fill="none" xmlns="http://www.w3.org/2000/svg">
    <path d="M26 28C33.3333 28 35.3067 22.5867 35.8133 19.7333C38.24 18.96 40 16.6933 40 14C40 10.6667 37.3333 8 34 8C30.6667 8 28 10.6667 28 14C28 16.5067 29.52 18.6667 31.7067 19.5467C31.12 21.3333 29.3333 24 24 24C20.32 24 17.76 24.9333 16 26.24V15.6533C18.32 14.8267 20 12.6133 20 10C20 6.66667 17.3333 4 14 4C10.6667 4 8 6.66667 8 10C8 12.6133 9.68 14.8267 12 15.6533V32.3467C9.68 33.1733 8 35.3867 8 38C8 41.3333 10.6667 44 14 44C17.3333 44 20 41.3333 20 38C20 35.52 18.5067 33.3333 16.3467 32.48C17.0933 30.6667 19.28 28 26 28ZM14 36C14.5304 36 15.0391 36.2107 15.4142 36.5858C15.7893 36.9609 16 37.4696 16 38C16 38.5304 15.7893 39.0391 15.4142 39.4142C15.0391 39.7893 14.5304 40 14 40C13.4696 40 12.9609 39.7893 12.5858 39.4142C12.2107 39.0391 12 38.5304 12 38C12 37.4696 12.2107 36.9609 12.5858 36.5858C12.9609 36.2107 13.4696 36 14 36ZM14 8C14.5304 8 15.0391 8.21071 15.4142 8.58579C15.7893 8.96086 16 9.46957 16 10C16 10.5304 15.7893 11.0391 15.4142 11.4142C15.0391 11.7893 14.5304 12 14 12C13.4696 12 12.9609 11.7893 12.5858 11.4142C12.2107 11.0391 12 10.5304 12 10C12 9.46957 12.2107 8.96086 12.5858 8.58579C12.9609 8.21071 13.4696 8 14 8ZM34 12C34.5304 12 35.0391 12.2107 35.4142 12.5858C35.7893 12.9609 36 13.4696 36 14C36 14.5304 35.7893 15.0391 35.4142 15.4142C35.0391 15.7893 34.5304 16 34 16C33.4696 16 32.9609 15.7893 32.5858 15.4142C32.2107 15.0391 32 14.5304 32 14C32 13.4696 32.2107 12.9609 32.5858 12.5858C32.9609 12.2107 33.4696 12 34 12Z" fill="currentcolor" />
</svg>