<svg viewBox="0 0 48 48" fill="none" xmlns="http://www.w3.org/2000/svg">
    <path d="M6.6123 21.5572C16.8128 17.113 23.6148 14.1831 27.0181 12.7675C36.7355 8.72575 38.7546 8.02366 40.0707 8.00022C40.3602 7.99537 41.0074 8.06711 41.4266 8.40729C41.7806 8.69453 41.878 9.08255 41.9246 9.35488C41.9712 9.62722 42.0292 10.2476 41.9831 10.7324C41.4565 16.2652 39.178 29.692 38.0188 35.889C37.5283 38.5111 36.5625 39.3903 35.6275 39.4763C33.5955 39.6633 32.0525 38.1335 30.0845 36.8434C27.0048 34.8246 25.265 33.5679 22.2757 31.598C18.821 29.3214 21.0605 28.0702 23.0294 26.0253C23.5446 25.4901 32.4976 17.3467 32.6708 16.608C32.6925 16.5156 32.7126 16.1712 32.508 15.9894C32.3034 15.8075 32.0015 15.8697 31.7836 15.9191C31.4747 15.9892 26.5549 19.241 17.0242 25.6745C15.6278 26.6334 14.3629 27.1006 13.2296 27.0762C11.9803 27.0492 9.57702 26.3698 7.79045 25.789C5.59915 25.0767 3.85755 24.7001 4.00921 23.4904C4.0882 22.8603 4.9559 22.2159 6.6123 21.5572Z" fill="currentcolor" />
</svg>    