<svg width="1000" height="625" viewBox="0 0 800 500" fill="none" xmlns="http://www.w3.org/2000/svg">
    <g clip-path="url(#clip0_17_2)">
        <rect width="500" height="800" transform="translate(0 500) rotate(-90)" fill="%background%" />
        <g filter="url(#filter0_ddddddi_17_2)">
            <path d="M418 45H484V78H451V111H352V78H319V45H385V78H418V45Z" fill="url(#paint0_linear_17_2)" />
            <path d="M352 144V111H319V177H352V210H451V177H484V111H451V144H418V177H385V144H352Z" fill="url(#paint1_linear_17_2)" />
        </g>
        <circle cx="400.5" cy="-53.5" r="621" stroke="%accent%" />
        <circle cx="400.5" cy="-90.5" r="584" stroke="%accent%" stroke-opacity="0.5" />
        <circle cx="400.5" cy="-132.5" r="542" stroke="%tertiary%" stroke-opacity="0.25" />
        <circle cx="400.5" cy="-173.5" r="501" stroke="%tertiary%" stroke-opacity="0.1" />
        <g filter="url(#filter1_dddddd_17_2)">
            <path d="M331.113 317H339.454V349.562C339.439 352.546 338.805 355.117 337.55 357.272C336.296 359.413 334.543 361.064 332.292 362.224C330.055 363.37 327.449 363.943 324.472 363.943C321.752 363.943 319.304 363.461 317.128 362.496C314.967 361.516 313.252 360.069 311.982 358.154C310.713 356.24 310.078 353.858 310.078 351.009H318.442C318.457 352.26 318.729 353.338 319.258 354.242C319.802 355.147 320.55 355.84 321.502 356.323C322.454 356.805 323.55 357.046 324.789 357.046C326.134 357.046 327.275 356.767 328.212 356.21C329.149 355.637 329.859 354.793 330.342 353.677C330.841 352.562 331.098 351.19 331.113 349.562V317Z" fill="white" />
            <path d="M363.402 363.988C360.002 363.988 357.055 363.242 354.562 361.75C352.068 360.257 350.134 358.169 348.759 355.486C347.399 352.803 346.719 349.667 346.719 346.079C346.719 342.492 347.399 339.348 348.759 336.65C350.134 333.952 352.068 331.856 354.562 330.364C357.055 328.871 360.002 328.125 363.402 328.125C366.802 328.125 369.748 328.871 372.242 330.364C374.735 331.856 376.662 333.952 378.022 336.65C379.397 339.348 380.084 342.492 380.084 346.079C380.084 349.667 379.397 352.803 378.022 355.486C376.662 358.169 374.735 360.257 372.242 361.75C369.748 363.242 366.802 363.988 363.402 363.988ZM363.447 357.431C365.291 357.431 366.832 356.926 368.071 355.916C369.31 354.891 370.232 353.519 370.836 351.8C371.456 350.082 371.766 348.167 371.766 346.057C371.766 343.931 371.456 342.009 370.836 340.291C370.232 338.557 369.31 337.178 368.071 336.153C366.832 335.127 365.291 334.615 363.447 334.615C361.558 334.615 359.987 335.127 358.732 336.153C357.493 337.178 356.564 338.557 355.944 340.291C355.34 342.009 355.038 343.931 355.038 346.057C355.038 348.167 355.34 350.082 355.944 351.8C356.564 353.519 357.493 354.891 358.732 355.916C359.987 356.926 361.558 357.431 363.447 357.431Z" fill="white" />
            <path d="M414.566 337.758L407.086 338.572C406.874 337.818 406.504 337.11 405.975 336.447C405.462 335.783 404.766 335.248 403.89 334.841C403.014 334.434 401.941 334.231 400.671 334.231C398.964 334.231 397.528 334.6 396.365 335.339C395.216 336.077 394.65 337.034 394.665 338.21C394.65 339.22 395.02 340.042 395.775 340.675C396.546 341.308 397.815 341.828 399.583 342.235L405.522 343.502C408.816 344.21 411.264 345.333 412.866 346.871C414.483 348.408 415.299 350.421 415.314 352.908C415.299 355.094 414.657 357.024 413.387 358.697C412.133 360.355 410.388 361.652 408.151 362.586C405.915 363.521 403.346 363.988 400.445 363.988C396.183 363.988 392.753 363.099 390.154 361.32C387.555 359.526 386.006 357.031 385.507 353.835L393.509 353.067C393.871 354.634 394.642 355.818 395.821 356.617C396.999 357.416 398.533 357.815 400.422 357.815C402.371 357.815 403.935 357.416 405.114 356.617C406.308 355.818 406.905 354.83 406.905 353.654C406.905 352.659 406.519 351.838 405.749 351.19C404.993 350.541 403.814 350.044 402.213 349.697L396.274 348.454C392.934 347.76 390.464 346.592 388.862 344.949C387.26 343.29 386.467 341.195 386.482 338.663C386.467 336.522 387.049 334.668 388.227 333.1C389.421 331.517 391.076 330.296 393.191 329.437C395.322 328.562 397.778 328.125 400.558 328.125C404.638 328.125 407.849 328.992 410.191 330.726C412.549 332.459 414.007 334.803 414.566 337.758Z" fill="white" />
            <path d="M444.271 348.702V328.577H452.476V363.31H444.52V357.137H444.157C443.372 359.081 442.08 360.672 440.281 361.908C438.498 363.144 436.3 363.762 433.685 363.762C431.404 363.762 429.386 363.257 427.633 362.247C425.896 361.222 424.536 359.737 423.553 357.792C422.571 355.833 422.08 353.466 422.08 350.692V328.577H430.285V349.426C430.285 351.627 430.89 353.376 432.099 354.672C433.308 355.968 434.894 356.617 436.859 356.617C438.068 356.617 439.239 356.323 440.372 355.735C441.505 355.147 442.435 354.273 443.16 353.112C443.9 351.936 444.271 350.466 444.271 348.702Z" fill="white" />
            <path d="M470.932 364.011C468.726 364.011 466.739 363.619 464.971 362.835C463.218 362.036 461.828 360.86 460.8 359.307C459.788 357.755 459.282 355.84 459.282 353.564C459.282 351.604 459.644 349.984 460.37 348.702C461.095 347.421 462.085 346.396 463.339 345.627C464.593 344.858 466.006 344.278 467.578 343.886C469.164 343.479 470.804 343.185 472.496 343.004C474.536 342.793 476.191 342.605 477.46 342.439C478.73 342.258 479.651 341.987 480.226 341.625C480.815 341.248 481.11 340.667 481.11 339.884V339.748C481.11 338.044 480.603 336.725 479.591 335.791C478.579 334.856 477.12 334.389 475.216 334.389C473.207 334.389 471.612 334.826 470.434 335.7C469.27 336.575 468.484 337.607 468.076 338.798L460.415 337.713C461.019 335.602 462.017 333.839 463.407 332.422C464.797 330.989 466.497 329.919 468.507 329.211C470.517 328.487 472.738 328.125 475.171 328.125C476.848 328.125 478.518 328.321 480.18 328.713C481.843 329.105 483.361 329.753 484.736 330.658C486.111 331.547 487.215 332.761 488.046 334.298C488.892 335.836 489.315 337.758 489.315 340.064V363.31H481.427V358.539H481.155C480.656 359.503 479.954 360.408 479.047 361.252C478.155 362.081 477.03 362.752 475.67 363.265C474.325 363.762 472.746 364.011 470.932 364.011ZM473.063 357.996C474.71 357.996 476.138 357.672 477.347 357.024C478.556 356.36 479.485 355.486 480.135 354.401C480.8 353.315 481.132 352.132 481.132 350.851V346.758C480.875 346.969 480.437 347.165 479.818 347.346C479.213 347.527 478.533 347.685 477.778 347.82C477.022 347.956 476.274 348.077 475.534 348.182C474.793 348.288 474.151 348.378 473.607 348.454C472.383 348.619 471.287 348.891 470.32 349.268C469.353 349.645 468.59 350.172 468.031 350.851C467.472 351.514 467.192 352.373 467.192 353.428C467.192 354.936 467.744 356.074 468.847 356.843C469.95 357.612 471.355 357.996 473.063 357.996Z" fill="white" />
            <path d="M214 440.252V393.942H222.409V433.219H242.855V440.252H214Z" fill="white" />
            <path d="M265.204 440.93C261.713 440.93 258.699 440.207 256.16 438.759C253.636 437.297 251.695 435.232 250.335 432.564C248.975 429.88 248.295 426.722 248.295 423.089C248.295 419.516 248.975 416.381 250.335 413.682C251.71 410.969 253.629 408.858 256.092 407.351C258.555 405.828 261.449 405.067 264.773 405.067C266.919 405.067 268.944 405.414 270.848 406.107C272.767 406.786 274.46 407.841 275.925 409.273C277.406 410.705 278.57 412.529 279.416 414.745C280.262 416.946 280.685 419.569 280.685 422.614V425.124H252.148V419.607H272.82C272.805 418.039 272.465 416.645 271.8 415.424C271.135 414.187 270.206 413.215 269.012 412.507C267.833 411.798 266.458 411.444 264.887 411.444C263.209 411.444 261.736 411.851 260.467 412.665C259.197 413.464 258.208 414.519 257.497 415.831C256.802 417.127 256.447 418.552 256.432 420.104V424.921C256.432 426.941 256.802 428.674 257.543 430.121C258.283 431.554 259.318 432.654 260.648 433.423C261.978 434.177 263.534 434.553 265.317 434.553C266.511 434.553 267.592 434.388 268.559 434.056C269.526 433.709 270.364 433.204 271.075 432.541C271.785 431.878 272.321 431.056 272.684 430.076L280.345 430.936C279.862 432.956 278.94 434.719 277.58 436.227C276.235 437.719 274.512 438.88 272.412 439.709C270.312 440.523 267.909 440.93 265.204 440.93Z" fill="white" />
            <path d="M295.832 419.901V440.252H287.627V405.519H295.47V411.421H295.878C296.679 409.477 297.955 407.931 299.708 406.786C301.476 405.64 303.66 405.067 306.259 405.067C308.662 405.067 310.755 405.58 312.538 406.605C314.336 407.63 315.726 409.115 316.708 411.059C317.706 413.004 318.197 415.363 318.182 418.137V440.252H309.976V419.403C309.976 417.082 309.372 415.265 308.163 413.954C306.969 412.642 305.315 411.986 303.199 411.986C301.763 411.986 300.487 412.303 299.368 412.936C298.265 413.554 297.396 414.451 296.762 415.627C296.142 416.803 295.832 418.227 295.832 419.901Z" fill="white" />
            <path d="M341.664 454C338.718 454 336.187 453.601 334.071 452.802C331.955 452.018 330.255 450.962 328.971 449.636C327.687 448.309 326.795 446.839 326.296 445.226L333.686 443.44C334.018 444.118 334.502 444.789 335.136 445.453C335.771 446.131 336.625 446.689 337.698 447.126C338.786 447.578 340.153 447.804 341.8 447.804C344.127 447.804 346.054 447.239 347.58 446.108C349.107 444.993 349.87 443.154 349.87 440.591V434.011H349.462C349.039 434.855 348.419 435.722 347.603 436.611C346.802 437.501 345.737 438.247 344.407 438.85C343.092 439.453 341.438 439.754 339.443 439.754C336.768 439.754 334.343 439.129 332.167 437.877C330.006 436.611 328.283 434.727 326.999 432.224C325.73 429.707 325.095 426.556 325.095 422.773C325.095 418.959 325.73 415.74 326.999 413.117C328.283 410.479 330.014 408.482 332.19 407.125C334.366 405.753 336.791 405.067 339.466 405.067C341.506 405.067 343.183 405.414 344.498 406.107C345.827 406.786 346.885 407.607 347.671 408.572C348.457 409.522 349.054 410.419 349.462 411.263H349.915V405.519H358.007V440.817C358.007 443.787 357.297 446.244 355.876 448.189C354.456 450.133 352.514 451.588 350.051 452.553C347.588 453.518 344.792 454 341.664 454ZM341.732 433.332C343.47 433.332 344.951 432.91 346.175 432.066C347.399 431.222 348.328 430.008 348.963 428.426C349.598 426.843 349.915 424.943 349.915 422.727C349.915 420.541 349.598 418.627 348.963 416.984C348.343 415.341 347.422 414.067 346.198 413.162C344.989 412.243 343.5 411.783 341.732 411.783C339.904 411.783 338.378 412.258 337.154 413.208C335.93 414.157 335.008 415.461 334.388 417.119C333.769 418.763 333.459 420.632 333.459 422.727C333.459 424.853 333.769 426.715 334.388 428.312C335.023 429.895 335.952 431.131 337.176 432.021C338.415 432.895 339.934 433.332 341.732 433.332Z" fill="white" />
            <path d="M373.602 440.252L363.764 405.519H372.128L378.248 429.941H378.566L384.822 405.519H393.095L399.351 429.805H399.691L405.72 405.519H414.107L404.247 440.252H395.702L389.174 416.78H388.698L382.17 440.252H373.602Z" fill="white" />
            <path d="M434.252 440.93C430.761 440.93 427.747 440.207 425.208 438.759C422.684 437.297 420.743 435.232 419.383 432.564C418.023 429.88 417.343 426.722 417.343 423.089C417.343 419.516 418.023 416.381 419.383 413.682C420.758 410.969 422.677 408.858 425.14 407.351C427.603 405.828 430.497 405.067 433.821 405.067C435.967 405.067 437.992 405.414 439.896 406.107C441.815 406.786 443.508 407.841 444.973 409.273C446.454 410.705 447.618 412.529 448.464 414.745C449.31 416.946 449.733 419.569 449.733 422.614V425.124H421.196V419.607H441.868C441.853 418.039 441.513 416.645 440.848 415.424C440.183 414.187 439.254 413.215 438.06 412.507C436.881 411.798 435.506 411.444 433.935 411.444C432.257 411.444 430.784 411.851 429.515 412.665C428.245 413.464 427.256 414.519 426.545 415.831C425.85 417.127 425.495 418.552 425.48 420.104V424.921C425.48 426.941 425.85 428.674 426.591 430.121C427.331 431.554 428.366 432.654 429.696 433.423C431.026 434.177 432.582 434.553 434.365 434.553C435.559 434.553 436.64 434.388 437.607 434.056C438.574 433.709 439.412 433.204 440.123 432.541C440.833 431.878 441.369 431.056 441.732 430.076L449.393 430.936C448.91 432.956 447.988 434.719 446.628 436.227C445.283 437.719 443.56 438.88 441.46 439.709C439.36 440.523 436.957 440.93 434.252 440.93Z" fill="white" />
            <path d="M464.88 419.901V440.252H456.675V405.519H464.518V411.421H464.926C465.727 409.477 467.003 407.931 468.756 406.786C470.524 405.64 472.708 405.067 475.307 405.067C477.71 405.067 479.803 405.58 481.586 406.605C483.384 407.63 484.774 409.115 485.756 411.059C486.754 413.004 487.245 415.363 487.23 418.137V440.252H479.024V419.403C479.024 417.082 478.42 415.265 477.211 413.954C476.017 412.642 474.363 411.986 472.247 411.986C470.811 411.986 469.535 412.303 468.416 412.936C467.313 413.554 466.444 414.451 465.81 415.627C465.19 416.803 464.88 418.227 464.88 419.901Z" fill="white" />
            <path d="M505.59 440.953C503.383 440.953 501.396 440.561 499.628 439.777C497.875 438.978 496.485 437.802 495.458 436.249C494.445 434.697 493.939 432.782 493.939 430.506C493.939 428.546 494.302 426.926 495.027 425.644C495.752 424.363 496.742 423.338 497.996 422.569C499.251 421.8 500.663 421.22 502.235 420.828C503.822 420.421 505.461 420.127 507.154 419.946C509.194 419.735 510.848 419.546 512.118 419.381C513.387 419.2 514.309 418.928 514.883 418.567C515.472 418.19 515.767 417.609 515.767 416.825V416.69C515.767 414.986 515.261 413.667 514.248 412.733C513.236 411.798 511.778 411.331 509.874 411.331C507.864 411.331 506.27 411.768 505.091 412.642C503.927 413.517 503.142 414.549 502.734 415.74L495.072 414.655C495.677 412.544 496.674 410.78 498.064 409.363C499.455 407.931 501.155 406.861 503.164 406.153C505.174 405.429 507.395 405.067 509.828 405.067C511.506 405.067 513.175 405.263 514.838 405.655C516.5 406.047 518.019 406.695 519.394 407.6C520.769 408.489 521.872 409.703 522.703 411.24C523.549 412.778 523.972 414.7 523.972 417.006V440.252H516.084V435.481H515.812C515.314 436.445 514.611 437.35 513.704 438.194C512.813 439.023 511.687 439.694 510.327 440.207C508.982 440.704 507.403 440.953 505.59 440.953ZM507.72 434.938C509.367 434.938 510.795 434.614 512.004 433.966C513.213 433.302 514.143 432.428 514.792 431.343C515.457 430.257 515.79 429.074 515.79 427.792V423.7C515.533 423.911 515.095 424.107 514.475 424.288C513.871 424.468 513.191 424.627 512.435 424.762C511.679 424.898 510.931 425.019 510.191 425.124C509.451 425.23 508.808 425.32 508.264 425.396C507.04 425.561 505.945 425.833 504.978 426.21C504.011 426.586 503.247 427.114 502.688 427.792C502.129 428.456 501.85 429.315 501.85 430.37C501.85 431.878 502.401 433.016 503.504 433.785C504.607 434.553 506.013 434.938 507.72 434.938Z" fill="white" />
            <path d="M549.608 405.519V411.851H529.594V405.519H549.608ZM534.535 397.198H542.74V429.805C542.74 430.905 542.907 431.75 543.239 432.337C543.587 432.91 544.04 433.302 544.599 433.513C545.158 433.724 545.778 433.83 546.458 433.83C546.971 433.83 547.44 433.792 547.863 433.717C548.301 433.641 548.634 433.574 548.86 433.513L550.243 439.913C549.805 440.063 549.178 440.229 548.362 440.41C547.561 440.591 546.579 440.696 545.415 440.727C543.36 440.787 541.509 440.478 539.862 439.8C538.215 439.106 536.907 438.036 535.94 436.589C534.988 435.141 534.52 433.332 534.535 431.162V397.198Z" fill="white" />
            <path d="M565.424 419.901V440.252H557.219V393.942H565.243V411.421H565.651C566.467 409.461 567.728 407.916 569.436 406.786C571.159 405.64 573.35 405.067 576.009 405.067C578.427 405.067 580.535 405.572 582.333 406.582C584.132 407.592 585.522 409.069 586.504 411.014C587.501 412.959 588 415.333 588 418.137V440.252H579.795V419.403C579.795 417.067 579.19 415.25 577.981 413.954C576.788 412.642 575.11 411.986 572.949 411.986C571.499 411.986 570.199 412.303 569.051 412.936C567.917 413.554 567.026 414.451 566.376 415.627C565.741 416.803 565.424 418.227 565.424 419.901Z" fill="white" />
        </g>
        <path d="M93.2755 257.404C93.1412 256.054 92.545 254.981 91.4866 254.184C90.4283 253.387 89.0975 252.989 87.4942 252.989C86.3648 252.989 85.3697 253.182 84.5088 253.569C83.6558 253.955 82.9845 254.492 82.4948 255.179C82.0131 255.857 81.7722 256.631 81.7722 257.499C81.7722 258.138 81.9104 258.698 82.1868 259.179C82.4632 259.661 82.8344 260.075 83.3004 260.422C83.7743 260.762 84.2956 261.054 84.8642 261.298C85.4408 261.543 86.0213 261.748 86.6057 261.914L89.1646 262.648C89.9386 262.861 90.7126 263.133 91.4866 263.464C92.2606 263.796 92.9675 264.214 93.6072 264.719C94.2549 265.216 94.7722 265.828 95.1592 266.554C95.5541 267.272 95.7515 268.136 95.7515 269.146C95.7515 270.44 95.4159 271.604 94.7445 272.638C94.0732 273.672 93.1097 274.493 91.8539 275.1C90.5981 275.7 89.0936 276 87.3402 276C85.6895 276 84.2561 275.728 83.0398 275.183C81.8235 274.631 80.8679 273.869 80.1728 272.899C79.4778 271.928 79.0869 270.804 79 269.525H81.2746C81.3536 270.48 81.6695 271.289 82.2224 271.952C82.7752 272.615 83.4939 273.12 84.3785 273.467C85.2631 273.806 86.2503 273.976 87.3402 273.976C88.5486 273.976 89.6227 273.775 90.5626 273.372C91.5103 272.962 92.2527 272.394 92.7898 271.668C93.3348 270.934 93.6072 270.081 93.6072 269.111C93.6072 268.29 93.394 267.604 92.9675 267.051C92.541 266.491 91.9447 266.021 91.1786 265.643C90.4204 265.264 89.5398 264.928 88.5368 264.636L85.6343 263.784C83.7309 263.216 82.2539 262.431 81.2035 261.429C80.1531 260.426 79.6279 259.148 79.6279 257.593C79.6279 256.291 79.9754 255.147 80.6704 254.161C81.3733 253.166 82.3211 252.393 83.5137 251.84C84.7142 251.28 86.0608 251 87.5535 251C89.062 251 90.3967 251.276 91.5577 251.829C92.7187 252.381 93.6388 253.143 94.318 254.113C95.0052 255.076 95.3724 256.173 95.4198 257.404H93.2755Z" fill="#FFFFFF80" />
        <path d="M139.322 263.464C139.322 265.99 138.872 268.188 137.972 270.058C137.071 271.92 135.831 273.364 134.252 274.39C132.68 275.408 130.871 275.917 128.826 275.917C126.78 275.917 124.968 275.408 123.388 274.39C121.816 273.364 120.58 271.92 119.68 270.058C118.787 268.188 118.341 265.99 118.341 263.464C118.341 260.939 118.787 258.745 119.68 256.883C120.58 255.013 121.82 253.569 123.4 252.551C124.979 251.525 126.788 251.012 128.826 251.012C130.871 251.012 132.68 251.525 134.252 252.551C135.831 253.569 137.071 255.013 137.972 256.883C138.872 258.745 139.322 260.939 139.322 263.464ZM137.166 263.464C137.166 261.294 136.803 259.436 136.076 257.889C135.349 256.335 134.358 255.147 133.102 254.326C131.847 253.506 130.421 253.095 128.826 253.095C127.238 253.095 125.817 253.506 124.561 254.326C123.305 255.147 122.31 256.331 121.575 257.877C120.849 259.424 120.485 261.286 120.485 263.464C120.485 265.635 120.849 267.493 121.575 269.04C122.302 270.586 123.293 271.774 124.549 272.603C125.805 273.423 127.23 273.834 128.826 273.834C130.421 273.834 131.847 273.423 133.102 272.603C134.366 271.782 135.361 270.598 136.088 269.052C136.814 267.497 137.174 265.635 137.166 263.464Z" fill="#FFFFFF80" />
        <path d="M163.028 275.586V251.343H177.067V253.332H165.244V262.458H175.965V264.447H165.244V275.586H163.028Z" fill="#FFFFFF80" />
        <path d="M199.455 253.332V251.343H217.048V253.332H209.359V275.586H207.144V253.332H199.455Z" fill="#FFFFFF80" />
        <path d="M244.601 275.586L237.955 251.343H240.206L245.703 272.188H245.893L251.39 251.343H253.949L259.445 272.188H259.635L265.132 251.343H267.395L260.749 275.586H258.379L252.752 255.025H252.598L246.971 275.586H244.601Z" fill="#FFFFFF80" />
        <path d="M287.893 275.586H285.571L294.397 251.343H296.767L305.593 275.586H303.271L295.665 254.22H295.499L287.893 275.586ZM289.564 266.294H301.6V268.282H289.564V266.294Z" fill="#FFFFFF80" />
        <path d="M328.099 275.586V251.343H335.93C337.652 251.343 339.089 251.655 340.243 252.278C341.404 252.894 342.276 253.75 342.861 254.847C343.453 255.936 343.749 257.187 343.749 258.599C343.749 260.012 343.453 261.259 342.861 262.34C342.276 263.421 341.407 264.265 340.254 264.873C339.101 265.481 337.672 265.785 335.966 265.785H329.296V263.76H335.907C337.17 263.76 338.221 263.551 339.058 263.133C339.903 262.715 340.531 262.119 340.941 261.346C341.36 260.572 341.569 259.657 341.569 258.599C341.569 257.542 341.36 256.619 340.941 255.83C340.523 255.033 339.891 254.417 339.046 253.983C338.209 253.549 337.15 253.332 335.871 253.332H330.315V275.586H328.099ZM338.797 264.648L344.768 275.586H342.209L336.297 264.648H338.797Z" fill="#FFFFFF80" />
        <path d="M367.494 275.586V251.343H381.568V253.332H369.709V262.458H380.822V264.447H369.709V273.597H381.805V275.586H367.494Z" fill="#FFFFFF80" />
        <path d="M433.382 275.586V251.343H447.456V253.332H435.597V262.458H446.709V264.447H435.597V273.597H447.693V275.586H433.382Z" fill="#FFFFFF80" />
        <path d="M490.434 251.343V275.586H488.278L473.943 255.285H473.754V275.586H471.538V251.343H473.682L488.065 271.668H488.254V251.343H490.434Z" fill="#FFFFFF80" />
        <path d="M532.02 258.919C531.799 258.114 531.475 257.36 531.049 256.658C530.622 255.948 530.093 255.328 529.461 254.8C528.837 254.263 528.115 253.845 527.293 253.545C526.48 253.245 525.571 253.095 524.568 253.095C522.989 253.095 521.575 253.506 520.327 254.326C519.079 255.147 518.092 256.331 517.366 257.877C516.647 259.424 516.287 261.286 516.287 263.464C516.287 265.635 516.651 267.493 517.377 269.04C518.104 270.586 519.099 271.774 520.363 272.603C521.634 273.423 523.088 273.834 524.722 273.834C526.215 273.834 527.534 273.502 528.679 272.839C529.825 272.177 530.717 271.23 531.357 269.999C532.004 268.768 532.32 267.304 532.304 265.607L533.015 265.832H525.244V263.843H534.461V265.832C534.461 267.899 534.042 269.687 533.205 271.194C532.368 272.701 531.219 273.865 529.757 274.686C528.296 275.507 526.618 275.917 524.722 275.917C522.606 275.917 520.754 275.408 519.166 274.39C517.579 273.364 516.343 271.92 515.458 270.058C514.582 268.188 514.143 265.99 514.143 263.464C514.143 261.563 514.396 259.846 514.901 258.315C515.407 256.784 516.122 255.474 517.046 254.385C517.978 253.296 519.079 252.464 520.351 251.888C521.623 251.304 523.028 251.012 524.568 251.012C525.895 251.012 527.108 251.221 528.205 251.639C529.311 252.057 530.283 252.634 531.12 253.367C531.965 254.093 532.656 254.934 533.193 255.889C533.738 256.836 534.105 257.846 534.295 258.919H532.02Z" fill="#FFFFFF80" />
        <path d="M560.524 251.343V275.586H558.309V251.343H560.524Z" fill="#FFFFFF80" />
        <path d="M604.219 251.343V275.586H602.063L587.728 255.285H587.539V275.586H585.323V251.343H587.468L601.85 271.668H602.039V251.343H604.219Z" fill="#FFFFFF80" />
        <path d="M629.018 275.586V251.343H643.093V253.332H631.234V262.458H642.346V264.447H631.234V273.597H643.329V275.586H629.018Z" fill="#FFFFFF80" />
        <path d="M667.175 275.586V251.343H681.249V253.332H669.39V262.458H680.503V264.447H669.39V273.597H681.486V275.586H667.175Z" fill="#FFFFFF80" />
        <path d="M705.331 275.586V251.343H713.162C714.884 251.343 716.321 251.655 717.475 252.278C718.636 252.894 719.508 253.75 720.093 254.847C720.685 255.936 720.981 257.187 720.981 258.599C720.981 260.012 720.685 261.259 720.093 262.34C719.508 263.421 718.639 264.265 717.486 264.873C716.333 265.481 714.904 265.785 713.198 265.785H706.528V263.76H713.139C714.402 263.76 715.453 263.551 716.29 263.133C717.135 262.715 717.763 262.119 718.173 261.346C718.592 260.572 718.801 259.657 718.801 258.599C718.801 257.542 718.592 256.619 718.173 255.83C717.755 255.033 717.123 254.417 716.278 253.983C715.441 253.549 714.382 253.332 713.103 253.332H707.547V275.586H705.331ZM716.029 264.648L722 275.586H719.441L713.529 264.648H716.029Z" fill="#FFFFFF80" />
    </g>
    <defs>
        <filter id="filter0_ddddddi_17_2" x="254" y="45" width="295" height="305" filterUnits="userSpaceOnUse" color-interpolation-filters="sRGB">
            <feFlood flood-opacity="0" result="BackgroundImageFix" />
            <feColorMatrix in="SourceAlpha" type="matrix" values="0 0 0 0 0 0 0 0 0 0 0 0 0 0 0 0 0 0 127 0" result="hardAlpha" />
            <feOffset dy="2.07544" />
            <feGaussianBlur stdDeviation="0.899358" />
            <feColorMatrix type="matrix" values="0 0 0 0 0 0 0 0 0 0 0 0 0 0 0 0 0 0 0.0534177 0" />
            <feBlend mode="normal" in2="BackgroundImageFix" result="effect1_dropShadow_17_2" />
            <feColorMatrix in="SourceAlpha" type="matrix" values="0 0 0 0 0 0 0 0 0 0 0 0 0 0 0 0 0 0 127 0" result="hardAlpha" />
            <feOffset dy="4.98758" />
            <feGaussianBlur stdDeviation="2.16128" />
            <feColorMatrix type="matrix" values="0 0 0 0 0 0 0 0 0 0 0 0 0 0 0 0 0 0 0.0767396 0" />
            <feBlend mode="normal" in2="effect1_dropShadow_17_2" result="effect2_dropShadow_17_2" />
            <feColorMatrix in="SourceAlpha" type="matrix" values="0 0 0 0 0 0 0 0 0 0 0 0 0 0 0 0 0 0 127 0" result="hardAlpha" />
            <feOffset dy="9.39116" />
            <feGaussianBlur stdDeviation="4.0695" />
            <feColorMatrix type="matrix" values="0 0 0 0 0 0 0 0 0 0 0 0 0 0 0 0 0 0 0.095 0" />
            <feBlend mode="normal" in2="effect2_dropShadow_17_2" result="effect3_dropShadow_17_2" />
            <feColorMatrix in="SourceAlpha" type="matrix" values="0 0 0 0 0 0 0 0 0 0 0 0 0 0 0 0 0 0 127 0" result="hardAlpha" />
            <feOffset dy="16.7522" />
            <feGaussianBlur stdDeviation="7.2593" />
            <feColorMatrix type="matrix" values="0 0 0 0 0 0 0 0 0 0 0 0 0 0 0 0 0 0 0.11326 0" />
            <feBlend mode="normal" in2="effect3_dropShadow_17_2" result="effect4_dropShadow_17_2" />
            <feColorMatrix in="SourceAlpha" type="matrix" values="0 0 0 0 0 0 0 0 0 0 0 0 0 0 0 0 0 0 127 0" result="hardAlpha" />
            <feOffset dy="31.3332" />
            <feGaussianBlur stdDeviation="13.5777" />
            <feColorMatrix type="matrix" values="0 0 0 0 0 0 0 0 0 0 0 0 0 0 0 0 0 0 0.136582 0" />
            <feBlend mode="normal" in2="effect4_dropShadow_17_2" result="effect5_dropShadow_17_2" />
            <feColorMatrix in="SourceAlpha" type="matrix" values="0 0 0 0 0 0 0 0 0 0 0 0 0 0 0 0 0 0 127 0" result="hardAlpha" />
            <feOffset dy="75" />
            <feGaussianBlur stdDeviation="32.5" />
            <feColorMatrix type="matrix" values="0 0 0 0 0 0 0 0 0 0 0 0 0 0 0 0 0 0 0.19 0" />
            <feBlend mode="normal" in2="effect5_dropShadow_17_2" result="effect6_dropShadow_17_2" />
            <feBlend mode="normal" in="SourceGraphic" in2="effect6_dropShadow_17_2" result="shape" />
            <feColorMatrix in="SourceAlpha" type="matrix" values="0 0 0 0 0 0 0 0 0 0 0 0 0 0 0 0 0 0 127 0" result="hardAlpha" />
            <feOffset dy="4" />
            <feGaussianBlur stdDeviation="2.5" />
            <feComposite in2="hardAlpha" operator="arithmetic" k2="-1" k3="1" />
            <feColorMatrix type="matrix" values="0 0 0 0 1 0 0 0 0 1 0 0 0 0 1 0 0 0 0.15 0" />
            <feBlend mode="normal" in2="shape" result="effect7_innerShadow_17_2" />
        </filter>
        <filter id="filter1_dddddd_17_2" x="134" y="317" width="534" height="317" filterUnits="userSpaceOnUse" color-interpolation-filters="sRGB">
            <feFlood flood-opacity="0" result="BackgroundImageFix" />
            <feColorMatrix in="SourceAlpha" type="matrix" values="0 0 0 0 0 0 0 0 0 0 0 0 0 0 0 0 0 0 127 0" result="hardAlpha" />
            <feOffset dy="2.76726" />
            <feGaussianBlur stdDeviation="1.1069" />
            <feColorMatrix type="matrix" values="0 0 0 0 0 0 0 0 0 0 0 0 0 0 0 0 0 0 0.0702864 0" />
            <feBlend mode="normal" in2="BackgroundImageFix" result="effect1_dropShadow_17_2" />
            <feColorMatrix in="SourceAlpha" type="matrix" values="0 0 0 0 0 0 0 0 0 0 0 0 0 0 0 0 0 0 127 0" result="hardAlpha" />
            <feOffset dy="6.6501" />
            <feGaussianBlur stdDeviation="2.66004" />
            <feColorMatrix type="matrix" values="0 0 0 0 0 0 0 0 0 0 0 0 0 0 0 0 0 0 0.100973 0" />
            <feBlend mode="normal" in2="effect1_dropShadow_17_2" result="effect2_dropShadow_17_2" />
            <feColorMatrix in="SourceAlpha" type="matrix" values="0 0 0 0 0 0 0 0 0 0 0 0 0 0 0 0 0 0 127 0" result="hardAlpha" />
            <feOffset dy="12.5216" />
            <feGaussianBlur stdDeviation="5.00862" />
            <feColorMatrix type="matrix" values="0 0 0 0 0 0 0 0 0 0 0 0 0 0 0 0 0 0 0.125 0" />
            <feBlend mode="normal" in2="effect2_dropShadow_17_2" result="effect3_dropShadow_17_2" />
            <feColorMatrix in="SourceAlpha" type="matrix" values="0 0 0 0 0 0 0 0 0 0 0 0 0 0 0 0 0 0 127 0" result="hardAlpha" />
            <feOffset dy="22.3363" />
            <feGaussianBlur stdDeviation="8.93452" />
            <feColorMatrix type="matrix" values="0 0 0 0 0 0 0 0 0 0 0 0 0 0 0 0 0 0 0.149027 0" />
            <feBlend mode="normal" in2="effect3_dropShadow_17_2" result="effect4_dropShadow_17_2" />
            <feColorMatrix in="SourceAlpha" type="matrix" values="0 0 0 0 0 0 0 0 0 0 0 0 0 0 0 0 0 0 127 0" result="hardAlpha" />
            <feOffset dy="41.7776" />
            <feGaussianBlur stdDeviation="16.711" />
            <feColorMatrix type="matrix" values="0 0 0 0 0 0 0 0 0 0 0 0 0 0 0 0 0 0 0.179714 0" />
            <feBlend mode="normal" in2="effect4_dropShadow_17_2" result="effect5_dropShadow_17_2" />
            <feColorMatrix in="SourceAlpha" type="matrix" values="0 0 0 0 0 0 0 0 0 0 0 0 0 0 0 0 0 0 127 0" result="hardAlpha" />
            <feOffset dy="100" />
            <feGaussianBlur stdDeviation="40" />
            <feColorMatrix type="matrix" values="0 0 0 0 0 0 0 0 0 0 0 0 0 0 0 0 0 0 0.25 0" />
            <feBlend mode="normal" in2="effect5_dropShadow_17_2" result="effect6_dropShadow_17_2" />
            <feBlend mode="normal" in="SourceGraphic" in2="effect6_dropShadow_17_2" result="shape" />
        </filter>
        <linearGradient id="paint0_linear_17_2" x1="401.5" y1="45" x2="401.5" y2="210" gradientUnits="userSpaceOnUse">
            <stop stop-color="%desaturated_accent%" />
            <stop offset="1" stop-color="%accent%" />
        </linearGradient>
        <linearGradient id="paint1_linear_17_2" x1="401.5" y1="45" x2="401.5" y2="210" gradientUnits="userSpaceOnUse">
            <stop stop-color="%desaturated_accent%" />
            <stop offset="1" stop-color="%accent%" />
        </linearGradient>
        <clipPath id="clip0_17_2">
            <rect width="500" height="800" fill="white" transform="translate(0 500) rotate(-90)" />
        </clipPath>
    </defs>
</svg>