<svg width="166" height="212" viewBox="0 0 166 212" fill="none" xmlns="http://www.w3.org/2000/svg">
    <rect x="21.5684" y="190.138" width="123.404" height="21.1388" rx="5" fill="white" />
    <rect x="0.669922" y="153.9" width="19.9039" height="20.1322" rx="5" fill="white" />
    <rect x="0.669922" y="117.663" width="19.9039" height="20.1322" rx="5" fill="white" />
    <rect x="37.4922" y="153.9" width="19.9039" height="20.1322" rx="5" fill="white" />
    <rect x="109.146" y="153.9" width="19.9039" height="20.1322" rx="5" fill="white" />
    <rect x="145.969" y="117.663" width="19.9039" height="20.1322" rx="5" fill="white" />
    <rect x="145.969" y="153.9" width="19.9039" height="20.1322" rx="5" fill="white" />
    <path fill-rule="evenodd" clip-rule="evenodd"
        d="M36.2695 20.3384V96.8854L83.2998 136.288L130.796 96.8009L131.171 20.3384H36.2695ZM31.2695 0.338379H136.196C144.509 0.338379 151.236 7.09902 151.196 15.4119L150.785 99.2294C150.763 103.661 148.782 107.857 145.374 110.69L86.4591 159.671C84.601 161.215 81.9039 161.21 80.0516 159.658L21.6364 110.717C18.2346 107.867 16.2695 103.657 16.2695 99.2193V15.3384C16.2695 7.05411 22.9853 0.338379 31.2695 0.338379Z"
        fill="%accent%" />
</svg>
    