<svg xmlns="http://www.w3.org/2000/svg" width="1000" height="625" fill="none" viewBox="0 0 800 500">
    <g clip-path="url(#a)">
        <path fill="%background%" d="M0 500V0h800v500z" />
        <g filter="url(#b)">
            <path fill="url(#c)" d="M418 45h66v33h-33v33h-99V78h-33V45h66v33h33V45Z" />
            <path fill="url(#d)" d="M352 144v-33h-33v66h33v33h99v-33h33v-66h-33v33h-33v33h-33v-33h-33Z" />
        </g>
        <circle cx="400.5" cy="-53.5" r="621" stroke="%accent%" />
        <circle cx="400.5" cy="-90.5" r="584" stroke="%accent%" stroke-opacity=".5" />
        <circle cx="400.5" cy="-132.5" r="542" stroke="%tertiary%" stroke-opacity=".25" />
        <circle cx="400.5" cy="-173.5" r="501" stroke="%tertiary%" stroke-opacity=".1" />
        <g fill="#fff" filter="url(#e)">
            <path d="M331.113 317h8.341v32.562c-.015 2.984-.649 5.555-1.904 7.71-1.254 2.141-3.007 3.792-5.258 4.952-2.237 1.146-4.843 1.719-7.82 1.719-2.72 0-5.168-.482-7.344-1.447-2.161-.98-3.876-2.427-5.146-4.342-1.269-1.914-1.904-4.296-1.904-7.145h8.364c.015 1.251.287 2.329.816 3.233a5.43 5.43 0 0 0 2.244 2.081c.952.482 2.048.723 3.287.723 1.345 0 2.486-.279 3.423-.836.937-.573 1.647-1.417 2.13-2.533.499-1.115.756-2.487.771-4.115V317ZM363.402 363.988c-3.4 0-6.347-.746-8.84-2.238-2.494-1.493-4.428-3.581-5.803-6.264-1.36-2.683-2.04-5.819-2.04-9.407 0-3.587.68-6.731 2.04-9.429 1.375-2.698 3.309-4.794 5.803-6.286 2.493-1.493 5.44-2.239 8.84-2.239 3.4 0 6.346.746 8.84 2.239 2.493 1.492 4.42 3.588 5.78 6.286 1.375 2.698 2.062 5.842 2.062 9.429 0 3.588-.687 6.724-2.062 9.407-1.36 2.683-3.287 4.771-5.78 6.264-2.494 1.492-5.44 2.238-8.84 2.238Zm.045-6.557c1.844 0 3.385-.505 4.624-1.515 1.239-1.025 2.161-2.397 2.765-4.116.62-1.718.93-3.633.93-5.743 0-2.126-.31-4.048-.93-5.766-.604-1.734-1.526-3.113-2.765-4.138-1.239-1.026-2.78-1.538-4.624-1.538-1.889 0-3.46.512-4.715 1.538-1.239 1.025-2.168 2.404-2.788 4.138-.604 1.718-.906 3.64-.906 5.766 0 2.11.302 4.025.906 5.743.62 1.719 1.549 3.091 2.788 4.116 1.255 1.01 2.826 1.515 4.715 1.515ZM414.566 337.758l-7.48.814a5.99 5.99 0 0 0-1.111-2.125c-.513-.664-1.209-1.199-2.085-1.606-.876-.407-1.949-.61-3.219-.61-1.707 0-3.143.369-4.306 1.108-1.149.738-1.715 1.695-1.7 2.871-.015 1.01.355 1.832 1.11 2.465.771.633 2.04 1.153 3.808 1.56l5.939 1.267c3.294.708 5.742 1.831 7.344 3.369 1.617 1.537 2.433 3.55 2.448 6.037-.015 2.186-.657 4.116-1.927 5.789-1.254 1.658-2.999 2.955-5.236 3.889-2.236.935-4.805 1.402-7.706 1.402-4.262 0-7.692-.889-10.291-2.668-2.599-1.794-4.148-4.289-4.647-7.485l8.002-.768c.362 1.567 1.133 2.751 2.312 3.55 1.178.799 2.712 1.198 4.601 1.198 1.949 0 3.513-.399 4.692-1.198 1.194-.799 1.791-1.787 1.791-2.963 0-.995-.386-1.816-1.156-2.464-.756-.649-1.935-1.146-3.536-1.493l-5.939-1.243c-3.34-.694-5.81-1.862-7.412-3.505-1.602-1.659-2.395-3.754-2.38-6.286-.015-2.141.567-3.995 1.745-5.563 1.194-1.583 2.849-2.804 4.964-3.663 2.131-.875 4.587-1.312 7.367-1.312 4.08 0 7.291.867 9.633 2.601 2.358 1.733 3.816 4.077 4.375 7.032ZM444.271 348.702v-20.125h8.205v34.733h-7.956v-6.173h-.363c-.785 1.944-2.077 3.535-3.876 4.771-1.783 1.236-3.981 1.854-6.596 1.854-2.281 0-4.299-.505-6.052-1.515-1.737-1.025-3.097-2.51-4.08-4.455-.982-1.959-1.473-4.326-1.473-7.1v-22.115h8.205v20.849c0 2.201.605 3.95 1.814 5.246 1.209 1.296 2.795 1.945 4.76 1.945 1.209 0 2.38-.294 3.513-.882 1.133-.588 2.063-1.462 2.788-2.623.74-1.176 1.111-2.646 1.111-4.41ZM470.932 364.011c-2.206 0-4.193-.392-5.961-1.176-1.753-.799-3.143-1.975-4.171-3.528-1.012-1.552-1.518-3.467-1.518-5.743 0-1.96.362-3.58 1.088-4.862a8.41 8.41 0 0 1 2.969-3.075c1.254-.769 2.667-1.349 4.239-1.741a34.548 34.548 0 0 1 4.918-.882c2.04-.211 3.695-.399 4.964-.565 1.27-.181 2.191-.452 2.766-.814.589-.377.884-.958.884-1.741v-.136c0-1.704-.507-3.023-1.519-3.957-1.012-.935-2.471-1.402-4.375-1.402-2.009 0-3.604.437-4.782 1.311-1.164.875-1.95 1.907-2.358 3.098l-7.661-1.085c.604-2.111 1.602-3.874 2.992-5.291 1.39-1.433 3.09-2.503 5.1-3.211 2.01-.724 4.231-1.086 6.664-1.086 1.677 0 3.347.196 5.009.588a14.094 14.094 0 0 1 4.556 1.945c1.375.889 2.479 2.103 3.31 3.64.846 1.538 1.269 3.46 1.269 5.766v23.246h-7.888v-4.771h-.272c-.499.964-1.201 1.869-2.108 2.713-.892.829-2.017 1.5-3.377 2.013-1.345.497-2.924.746-4.738.746Zm2.131-6.015c1.647 0 3.075-.324 4.284-.972 1.209-.664 2.138-1.538 2.788-2.623a6.67 6.67 0 0 0 .997-3.55v-4.093c-.257.211-.695.407-1.314.588-.605.181-1.285.339-2.04.474-.756.136-1.504.257-2.244.362-.741.106-1.383.196-1.927.272-1.224.165-2.32.437-3.287.814-.967.377-1.73.904-2.289 1.583-.559.663-.839 1.522-.839 2.577 0 1.508.552 2.646 1.655 3.415 1.103.769 2.508 1.153 4.216 1.153ZM214 440.252v-46.31h8.409v39.277h20.446v7.033H214ZM265.204 440.93c-3.491 0-6.505-.723-9.044-2.171-2.524-1.462-4.465-3.527-5.825-6.195-1.36-2.684-2.04-5.842-2.04-9.475 0-3.573.68-6.708 2.04-9.407 1.375-2.713 3.294-4.824 5.757-6.331 2.463-1.523 5.357-2.284 8.681-2.284 2.146 0 4.171.347 6.075 1.04a13.738 13.738 0 0 1 5.077 3.166c1.481 1.432 2.645 3.256 3.491 5.472.846 2.201 1.269 4.824 1.269 7.869v2.51h-28.537v-5.517h20.672c-.015-1.568-.355-2.962-1.02-4.183a7.397 7.397 0 0 0-2.788-2.917c-1.179-.709-2.554-1.063-4.125-1.063-1.678 0-3.151.407-4.42 1.221a8.422 8.422 0 0 0-2.97 3.166c-.695 1.296-1.05 2.721-1.065 4.273v4.817c0 2.02.37 3.753 1.111 5.2.74 1.433 1.775 2.533 3.105 3.302 1.33.754 2.886 1.13 4.669 1.13 1.194 0 2.275-.165 3.242-.497a7.213 7.213 0 0 0 2.516-1.515c.71-.663 1.246-1.485 1.609-2.465l7.661.86c-.483 2.02-1.405 3.783-2.765 5.291-1.345 1.492-3.068 2.653-5.168 3.482-2.1.814-4.503 1.221-7.208 1.221ZM295.832 419.901v20.351h-8.205v-34.733h7.843v5.902h.408c.801-1.944 2.077-3.49 3.83-4.635 1.768-1.146 3.952-1.719 6.551-1.719 2.403 0 4.496.513 6.279 1.538 1.798 1.025 3.188 2.51 4.17 4.454.998 1.945 1.489 4.304 1.474 7.078v22.115h-8.206v-20.849c0-2.321-.604-4.138-1.813-5.449-1.194-1.312-2.848-1.968-4.964-1.968-1.436 0-2.712.317-3.831.95-1.103.618-1.972 1.515-2.606 2.691-.62 1.176-.93 2.6-.93 4.274ZM341.664 454c-2.946 0-5.477-.399-7.593-1.198-2.116-.784-3.816-1.84-5.1-3.166-1.284-1.327-2.176-2.797-2.675-4.41l7.39-1.786c.332.678.816 1.349 1.45 2.013.635.678 1.489 1.236 2.562 1.673 1.088.452 2.455.678 4.102.678 2.327 0 4.254-.565 5.78-1.696 1.527-1.115 2.29-2.954 2.29-5.517v-6.58h-.408c-.423.844-1.043 1.711-1.859 2.6-.801.89-1.866 1.636-3.196 2.239-1.315.603-2.969.904-4.964.904-2.675 0-5.1-.625-7.276-1.877-2.161-1.266-3.884-3.15-5.168-5.653-1.269-2.517-1.904-5.668-1.904-9.451 0-3.814.635-7.033 1.904-9.656 1.284-2.638 3.015-4.635 5.191-5.992 2.176-1.372 4.601-2.058 7.276-2.058 2.04 0 3.717.347 5.032 1.04 1.329.679 2.387 1.5 3.173 2.465.786.95 1.383 1.847 1.791 2.691h.453v-5.744h8.092v35.298c0 2.97-.71 5.427-2.131 7.372-1.42 1.944-3.362 3.399-5.825 4.364-2.463.965-5.259 1.447-8.387 1.447Zm.068-20.668c1.738 0 3.219-.422 4.443-1.266 1.224-.844 2.153-2.058 2.788-3.64.635-1.583.952-3.483.952-5.699 0-2.186-.317-4.1-.952-5.743-.62-1.643-1.541-2.917-2.765-3.822-1.209-.919-2.698-1.379-4.466-1.379-1.828 0-3.354.475-4.578 1.425-1.224.949-2.146 2.253-2.766 3.911-.619 1.644-.929 3.513-.929 5.608 0 2.126.31 3.988.929 5.585.635 1.583 1.564 2.819 2.788 3.709 1.239.874 2.758 1.311 4.556 1.311ZM373.602 440.252l-9.838-34.733h8.364l6.12 24.422h.318l6.256-24.422h8.273l6.256 24.286h.34l6.029-24.286h8.387l-9.86 34.733h-8.545l-6.528-23.472h-.476l-6.528 23.472h-8.568ZM434.252 440.93c-3.491 0-6.505-.723-9.044-2.171-2.524-1.462-4.465-3.527-5.825-6.195-1.36-2.684-2.04-5.842-2.04-9.475 0-3.573.68-6.708 2.04-9.407 1.375-2.713 3.294-4.824 5.757-6.331 2.463-1.523 5.357-2.284 8.681-2.284 2.146 0 4.171.347 6.075 1.04a13.738 13.738 0 0 1 5.077 3.166c1.481 1.432 2.645 3.256 3.491 5.472.846 2.201 1.269 4.824 1.269 7.869v2.51h-28.537v-5.517h20.672c-.015-1.568-.355-2.962-1.02-4.183a7.397 7.397 0 0 0-2.788-2.917c-1.179-.709-2.554-1.063-4.125-1.063-1.678 0-3.151.407-4.42 1.221a8.422 8.422 0 0 0-2.97 3.166c-.695 1.296-1.05 2.721-1.065 4.273v4.817c0 2.02.37 3.753 1.111 5.2.74 1.433 1.775 2.533 3.105 3.302 1.33.754 2.886 1.13 4.669 1.13 1.194 0 2.275-.165 3.242-.497a7.213 7.213 0 0 0 2.516-1.515c.71-.663 1.246-1.485 1.609-2.465l7.661.86c-.483 2.02-1.405 3.783-2.765 5.291-1.345 1.492-3.068 2.653-5.168 3.482-2.1.814-4.503 1.221-7.208 1.221ZM464.88 419.901v20.351h-8.205v-34.733h7.843v5.902h.408c.801-1.944 2.077-3.49 3.83-4.635 1.768-1.146 3.952-1.719 6.551-1.719 2.403 0 4.496.513 6.279 1.538 1.798 1.025 3.188 2.51 4.17 4.454.998 1.945 1.489 4.304 1.474 7.078v22.115h-8.206v-20.849c0-2.321-.604-4.138-1.813-5.449-1.194-1.312-2.848-1.968-4.964-1.968-1.436 0-2.712.317-3.831.95-1.103.618-1.972 1.515-2.606 2.691-.62 1.176-.93 2.6-.93 4.274ZM505.59 440.953c-2.207 0-4.194-.392-5.962-1.176-1.753-.799-3.143-1.975-4.17-3.528-1.013-1.552-1.519-3.467-1.519-5.743 0-1.96.363-3.58 1.088-4.862a8.41 8.41 0 0 1 2.969-3.075c1.255-.769 2.667-1.349 4.239-1.741a34.562 34.562 0 0 1 4.919-.882c2.04-.211 3.694-.4 4.964-.565 1.269-.181 2.191-.453 2.765-.814.589-.377.884-.958.884-1.742v-.135c0-1.704-.506-3.023-1.519-3.957-1.012-.935-2.47-1.402-4.374-1.402-2.01 0-3.604.437-4.783 1.311-1.164.875-1.949 1.907-2.357 3.098l-7.662-1.085c.605-2.111 1.602-3.875 2.992-5.292 1.391-1.432 3.091-2.502 5.1-3.21 2.01-.724 4.231-1.086 6.664-1.086 1.678 0 3.347.196 5.01.588a14.104 14.104 0 0 1 4.556 1.945c1.375.889 2.478 2.103 3.309 3.64.846 1.538 1.269 3.46 1.269 5.766v23.246h-7.888v-4.771h-.272c-.498.964-1.201 1.869-2.108 2.713-.891.829-2.017 1.5-3.377 2.013-1.345.497-2.924.746-4.737.746Zm2.13-6.015c1.647 0 3.075-.324 4.284-.972 1.209-.664 2.139-1.538 2.788-2.623a6.672 6.672 0 0 0 .998-3.551V423.7c-.257.211-.695.407-1.315.588-.604.18-1.284.339-2.04.474-.756.136-1.504.257-2.244.362-.74.106-1.383.196-1.927.272-1.224.165-2.319.437-3.286.814-.967.376-1.731.904-2.29 1.582-.559.664-.838 1.523-.838 2.578 0 1.508.551 2.646 1.654 3.415 1.103.768 2.509 1.153 4.216 1.153ZM549.608 405.519v6.332h-20.014v-6.332h20.014Zm-15.073-8.321h8.205v32.607c0 1.1.167 1.945.499 2.532.348.573.801.965 1.36 1.176a5.229 5.229 0 0 0 1.859.317c.513 0 .982-.038 1.405-.113.438-.076.771-.143.997-.204l1.383 6.4c-.438.15-1.065.316-1.881.497-.801.181-1.783.286-2.947.317-2.055.06-3.906-.249-5.553-.927-1.647-.694-2.955-1.764-3.922-3.211-.952-1.448-1.42-3.257-1.405-5.427v-33.964ZM565.424 419.901v20.351h-8.205v-46.31h8.024v17.479h.408c.816-1.96 2.077-3.505 3.785-4.635 1.723-1.146 3.914-1.719 6.573-1.719 2.418 0 4.526.505 6.324 1.515 1.799 1.01 3.189 2.487 4.171 4.432.997 1.945 1.496 4.319 1.496 7.123v22.115h-8.205v-20.849c0-2.336-.605-4.153-1.814-5.449-1.193-1.312-2.871-1.968-5.032-1.968-1.45 0-2.75.317-3.898.95-1.134.618-2.025 1.515-2.675 2.691-.635 1.176-.952 2.6-.952 4.274Z" />
        </g>
        <path fill="#FFFFFF80" d="M93.275 257.404c-.134-1.35-.73-2.423-1.788-3.22-1.059-.797-2.39-1.195-3.993-1.195-1.13 0-2.124.193-2.985.58-.853.386-1.525.923-2.014 1.61-.482.678-.723 1.452-.723 2.32 0 .639.138 1.199.415 1.68.276.482.647.896 1.113 1.243.474.34.996.632 1.564.876.577.245 1.157.45 1.742.616l2.559.734c.774.213 1.548.485 2.322.816.774.332 1.48.75 2.12 1.255a5.615 5.615 0 0 1 1.552 1.835c.395.718.592 1.582.592 2.592 0 1.294-.335 2.458-1.007 3.492-.67 1.034-1.634 1.855-2.89 2.462-1.256.6-2.76.9-4.514.9-1.65 0-3.084-.272-4.3-.817-1.217-.552-2.172-1.314-2.867-2.284-.695-.971-1.086-2.095-1.173-3.374h2.275c.079.955.394 1.764.947 2.427.553.663 1.272 1.168 2.157 1.515.884.339 1.871.509 2.961.509 1.209 0 2.283-.201 3.223-.604.947-.41 1.69-.978 2.227-1.704.545-.734.817-1.587.817-2.557 0-.821-.213-1.507-.64-2.06-.426-.56-1.022-1.03-1.788-1.408a15.802 15.802 0 0 0-2.642-1.007l-2.903-.852c-1.903-.568-3.38-1.353-4.43-2.355-1.05-1.003-1.576-2.281-1.576-3.836 0-1.302.347-2.446 1.042-3.432.703-.995 1.651-1.768 2.844-2.321 1.2-.56 2.547-.84 4.04-.84 1.508 0 2.843.276 4.004.829 1.16.552 2.08 1.314 2.76 2.284.687.963 1.054 2.06 1.102 3.291h-2.145ZM139.322 263.464c0 2.526-.45 4.724-1.35 6.594-.901 1.862-2.141 3.306-3.72 4.332-1.572 1.018-3.381 1.527-5.426 1.527-2.046 0-3.858-.509-5.438-1.527-1.572-1.026-2.808-2.47-3.708-4.332-.893-1.87-1.339-4.068-1.339-6.594 0-2.525.446-4.719 1.339-6.581.9-1.87 2.14-3.314 3.72-4.332 1.579-1.026 3.388-1.539 5.426-1.539 2.045 0 3.854.513 5.426 1.539 1.579 1.018 2.819 2.462 3.72 4.332.9 1.862 1.35 4.056 1.35 6.581Zm-2.156 0c0-2.17-.363-4.028-1.09-5.575-.727-1.554-1.718-2.742-2.974-3.563-1.255-.82-2.681-1.231-4.276-1.231-1.588 0-3.009.411-4.265 1.231-1.256.821-2.251 2.005-2.986 3.551-.726 1.547-1.09 3.409-1.09 5.587 0 2.171.364 4.029 1.09 5.576.727 1.546 1.718 2.734 2.974 3.563 1.256.82 2.681 1.231 4.277 1.231 1.595 0 3.021-.411 4.276-1.231 1.264-.821 2.259-2.005 2.986-3.551.726-1.555 1.086-3.417 1.078-5.588ZM163.028 275.586v-24.243h14.039v1.989h-11.823v9.126h10.721v1.989h-10.721v11.139h-2.216ZM199.455 253.332v-1.989h17.593v1.989h-7.689v22.254h-2.215v-22.254h-7.689ZM244.601 275.586l-6.646-24.243h2.251l5.497 20.845h.19l5.497-20.845h2.559l5.496 20.845h.19l5.497-20.845h2.263l-6.646 24.243h-2.37l-5.627-20.561h-.154l-5.627 20.561h-2.37ZM287.893 275.586h-2.322l8.826-24.243h2.37l8.826 24.243h-2.322l-7.606-21.366h-.166l-7.606 21.366Zm1.671-9.292H301.6v1.988h-12.036v-1.988ZM328.099 275.586v-24.243h7.831c1.722 0 3.159.312 4.313.935 1.161.616 2.033 1.472 2.618 2.569.592 1.089.888 2.34.888 3.752 0 1.413-.296 2.66-.888 3.741-.585 1.081-1.454 1.925-2.607 2.533-1.153.608-2.582.912-4.288.912h-6.67v-2.025h6.611c1.263 0 2.314-.209 3.151-.627.845-.418 1.473-1.014 1.883-1.787.419-.774.628-1.689.628-2.747 0-1.057-.209-1.98-.628-2.769-.418-.797-1.05-1.413-1.895-1.847-.837-.434-1.896-.651-3.175-.651h-5.556v22.254h-2.216Zm10.698-10.938 5.971 10.938h-2.559l-5.912-10.938h2.5ZM367.494 275.586v-24.243h14.074v1.989h-11.859v9.126h11.113v1.989h-11.113v9.15h12.096v1.989h-14.311ZM433.382 275.586v-24.243h14.074v1.989h-11.859v9.126h11.112v1.989h-11.112v9.15h12.096v1.989h-14.311ZM490.434 251.343v24.243h-2.156l-14.335-20.301h-.189v20.301h-2.216v-24.243h2.144l14.383 20.325h.189v-20.325h2.18ZM532.02 258.919a8.856 8.856 0 0 0-.971-2.261 7.317 7.317 0 0 0-1.588-1.858 6.93 6.93 0 0 0-2.168-1.255c-.813-.3-1.722-.45-2.725-.45-1.579 0-2.993.411-4.241 1.231-1.248.821-2.235 2.005-2.961 3.551-.719 1.547-1.079 3.409-1.079 5.587 0 2.171.364 4.029 1.09 5.576.727 1.546 1.722 2.734 2.986 3.563 1.271.82 2.725 1.231 4.359 1.231 1.493 0 2.812-.332 3.957-.995 1.146-.662 2.038-1.609 2.678-2.84.647-1.231.963-2.695.947-4.392l.711.225h-7.771v-1.989h9.217v1.989c0 2.067-.419 3.855-1.256 5.362-.837 1.507-1.986 2.671-3.448 3.492-1.461.821-3.139 1.231-5.035 1.231-2.116 0-3.968-.509-5.556-1.527-1.587-1.026-2.823-2.47-3.708-4.332-.876-1.87-1.315-4.068-1.315-6.594 0-1.901.253-3.618.758-5.149.506-1.531 1.221-2.841 2.145-3.93a9.426 9.426 0 0 1 3.305-2.497c1.272-.584 2.677-.876 4.217-.876 1.327 0 2.54.209 3.637.627a9.453 9.453 0 0 1 2.915 1.728 9.339 9.339 0 0 1 2.073 2.522 9.27 9.27 0 0 1 1.102 3.03h-2.275ZM560.524 251.343v24.243h-2.215v-24.243h2.215ZM604.219 251.343v24.243h-2.156l-14.335-20.301h-.189v20.301h-2.216v-24.243h2.145l14.382 20.325h.189v-20.325h2.18ZM629.018 275.586v-24.243h14.075v1.989h-11.859v9.126h11.112v1.989h-11.112v9.15h12.095v1.989h-14.311ZM667.175 275.586v-24.243h14.074v1.989H669.39v9.126h11.113v1.989H669.39v9.15h12.096v1.989h-14.311ZM705.331 275.586v-24.243h7.831c1.722 0 3.159.312 4.313.935 1.161.616 2.033 1.472 2.618 2.569.592 1.089.888 2.34.888 3.752 0 1.413-.296 2.66-.888 3.741-.585 1.081-1.454 1.925-2.607 2.533-1.153.608-2.582.912-4.288.912h-6.67v-2.025h6.611c1.263 0 2.314-.209 3.151-.627.845-.418 1.473-1.014 1.883-1.787.419-.774.628-1.689.628-2.747 0-1.057-.209-1.98-.628-2.769-.418-.797-1.05-1.413-1.895-1.847-.837-.434-1.896-.651-3.175-.651h-5.556v22.254h-2.216Zm10.698-10.938L722 275.586h-2.559l-5.912-10.938h2.5Z" />
    </g>
    <defs>
        <linearGradient id="c" x1="401.5" x2="401.5" y1="45" y2="210" gradientUnits="userSpaceOnUse">
            <stop stop-color="%desaturated_accent%" />
            <stop offset="1" stop-color="%accent%" />
        </linearGradient>
        <linearGradient id="d" x1="401.5" x2="401.5" y1="45" y2="210" gradientUnits="userSpaceOnUse">
            <stop stop-color="%desaturated_accent%" />
            <stop offset="1" stop-color="%accent%" />
        </linearGradient>
        <filter id="b" width="295" height="305" x="254" y="45" color-interpolation-filters="sRGB" filterUnits="userSpaceOnUse">
            <feFlood flood-opacity="0" result="BackgroundImageFix" />
            <feColorMatrix in="SourceAlpha" result="hardAlpha" values="0 0 0 0 0 0 0 0 0 0 0 0 0 0 0 0 0 0 127 0" />
            <feOffset dy="2.075" />
            <feGaussianBlur stdDeviation=".899" />
            <feColorMatrix values="0 0 0 0 0 0 0 0 0 0 0 0 0 0 0 0 0 0 0.0534177 0" />
            <feBlend in2="BackgroundImageFix" result="effect1_dropShadow_17_2" />
            <feColorMatrix in="SourceAlpha" result="hardAlpha" values="0 0 0 0 0 0 0 0 0 0 0 0 0 0 0 0 0 0 127 0" />
            <feOffset dy="4.988" />
            <feGaussianBlur stdDeviation="2.161" />
            <feColorMatrix values="0 0 0 0 0 0 0 0 0 0 0 0 0 0 0 0 0 0 0.0767396 0" />
            <feBlend in2="effect1_dropShadow_17_2" result="effect2_dropShadow_17_2" />
            <feColorMatrix in="SourceAlpha" result="hardAlpha" values="0 0 0 0 0 0 0 0 0 0 0 0 0 0 0 0 0 0 127 0" />
            <feOffset dy="9.391" />
            <feGaussianBlur stdDeviation="4.069" />
            <feColorMatrix values="0 0 0 0 0 0 0 0 0 0 0 0 0 0 0 0 0 0 0.095 0" />
            <feBlend in2="effect2_dropShadow_17_2" result="effect3_dropShadow_17_2" />
            <feColorMatrix in="SourceAlpha" result="hardAlpha" values="0 0 0 0 0 0 0 0 0 0 0 0 0 0 0 0 0 0 127 0" />
            <feOffset dy="16.752" />
            <feGaussianBlur stdDeviation="7.259" />
            <feColorMatrix values="0 0 0 0 0 0 0 0 0 0 0 0 0 0 0 0 0 0 0.11326 0" />
            <feBlend in2="effect3_dropShadow_17_2" result="effect4_dropShadow_17_2" />
            <feColorMatrix in="SourceAlpha" result="hardAlpha" values="0 0 0 0 0 0 0 0 0 0 0 0 0 0 0 0 0 0 127 0" />
            <feOffset dy="31.333" />
            <feGaussianBlur stdDeviation="13.578" />
            <feColorMatrix values="0 0 0 0 0 0 0 0 0 0 0 0 0 0 0 0 0 0 0.136582 0" />
            <feBlend in2="effect4_dropShadow_17_2" result="effect5_dropShadow_17_2" />
            <feColorMatrix in="SourceAlpha" result="hardAlpha" values="0 0 0 0 0 0 0 0 0 0 0 0 0 0 0 0 0 0 127 0" />
            <feOffset dy="75" />
            <feGaussianBlur stdDeviation="32.5" />
            <feColorMatrix values="0 0 0 0 0 0 0 0 0 0 0 0 0 0 0 0 0 0 0.19 0" />
            <feBlend in2="effect5_dropShadow_17_2" result="effect6_dropShadow_17_2" />
            <feBlend in="SourceGraphic" in2="effect6_dropShadow_17_2" result="shape" />
            <feColorMatrix in="SourceAlpha" result="hardAlpha" values="0 0 0 0 0 0 0 0 0 0 0 0 0 0 0 0 0 0 127 0" />
            <feOffset dy="4" />
            <feGaussianBlur stdDeviation="2.5" />
            <feComposite in2="hardAlpha" k2="-1" k3="1" operator="arithmetic" />
            <feColorMatrix values="0 0 0 0 1 0 0 0 0 1 0 0 0 0 1 0 0 0 0.15 0" />
            <feBlend in2="shape" result="effect7_innerShadow_17_2" />
        </filter>
        <filter id="e" width="534" height="317" x="134" y="317" color-interpolation-filters="sRGB" filterUnits="userSpaceOnUse">
            <feFlood flood-opacity="0" result="BackgroundImageFix" />
            <feColorMatrix in="SourceAlpha" result="hardAlpha" values="0 0 0 0 0 0 0 0 0 0 0 0 0 0 0 0 0 0 127 0" />
            <feOffset dy="2.767" />
            <feGaussianBlur stdDeviation="1.107" />
            <feColorMatrix values="0 0 0 0 0 0 0 0 0 0 0 0 0 0 0 0 0 0 0.0702864 0" />
            <feBlend in2="BackgroundImageFix" result="effect1_dropShadow_17_2" />
            <feColorMatrix in="SourceAlpha" result="hardAlpha" values="0 0 0 0 0 0 0 0 0 0 0 0 0 0 0 0 0 0 127 0" />
            <feOffset dy="6.65" />
            <feGaussianBlur stdDeviation="2.66" />
            <feColorMatrix values="0 0 0 0 0 0 0 0 0 0 0 0 0 0 0 0 0 0 0.100973 0" />
            <feBlend in2="effect1_dropShadow_17_2" result="effect2_dropShadow_17_2" />
            <feColorMatrix in="SourceAlpha" result="hardAlpha" values="0 0 0 0 0 0 0 0 0 0 0 0 0 0 0 0 0 0 127 0" />
            <feOffset dy="12.522" />
            <feGaussianBlur stdDeviation="5.009" />
            <feColorMatrix values="0 0 0 0 0 0 0 0 0 0 0 0 0 0 0 0 0 0 0.125 0" />
            <feBlend in2="effect2_dropShadow_17_2" result="effect3_dropShadow_17_2" />
            <feColorMatrix in="SourceAlpha" result="hardAlpha" values="0 0 0 0 0 0 0 0 0 0 0 0 0 0 0 0 0 0 127 0" />
            <feOffset dy="22.336" />
            <feGaussianBlur stdDeviation="8.935" />
            <feColorMatrix values="0 0 0 0 0 0 0 0 0 0 0 0 0 0 0 0 0 0 0.149027 0" />
            <feBlend in2="effect3_dropShadow_17_2" result="effect4_dropShadow_17_2" />
            <feColorMatrix in="SourceAlpha" result="hardAlpha" values="0 0 0 0 0 0 0 0 0 0 0 0 0 0 0 0 0 0 127 0" />
            <feOffset dy="41.778" />
            <feGaussianBlur stdDeviation="16.711" />
            <feColorMatrix values="0 0 0 0 0 0 0 0 0 0 0 0 0 0 0 0 0 0 0.179714 0" />
            <feBlend in2="effect4_dropShadow_17_2" result="effect5_dropShadow_17_2" />
            <feColorMatrix in="SourceAlpha" result="hardAlpha" values="0 0 0 0 0 0 0 0 0 0 0 0 0 0 0 0 0 0 127 0" />
            <feOffset dy="100" />
            <feGaussianBlur stdDeviation="40" />
            <feColorMatrix values="0 0 0 0 0 0 0 0 0 0 0 0 0 0 0 0 0 0 0.25 0" />
            <feBlend in2="effect5_dropShadow_17_2" result="effect6_dropShadow_17_2" />
            <feBlend in="SourceGraphic" in2="effect6_dropShadow_17_2" result="shape" />
        </filter>
        <clipPath id="a">
            <path fill="#fff" d="M0 500V0h800v500z" />
        </clipPath>
    </defs>
</svg>