<svg width="360" height="247" viewBox="0 0 360 247" fill="none" xmlns="http://www.w3.org/2000/svg">
    <rect width="360" height="247" fill="var(--main-bg)" />
    <circle cx="23" cy="21" r="15" fill="#030303" fill-opacity="0.1" />
    <circle cx="23" cy="20" r="15" fill="white" />
    <circle cx="23" cy="20" r="15" fill="var(--accent-bg)" />
    <path
        d="M346 22.5C347.66 22.5 348.99 21.16 348.99 19.5L349 13.5C349 11.84 347.66 10.5 346 10.5C344.34 10.5 343 11.84 343 13.5V19.5C343 21.16 344.34 22.5 346 22.5ZM351.3 19.5C351.3 22.5 348.76 24.6 346 24.6C343.24 24.6 340.7 22.5 340.7 19.5H339C339 22.92 341.72 25.73 345 26.22V29.5H347V26.22C350.28 25.74 353 22.92 353 19.5H351.3Z"
        fill="var(--key-color)" />
    <path
        d="M103.792 21.5206H100.729V26.8201H99V13.7198H103.318C104.787 13.7198 105.915 14.0557 106.704 14.7275C107.498 15.3993 107.895 16.377 107.895 17.6607C107.895 18.4764 107.674 19.1872 107.232 19.7931C106.796 20.3989 106.187 20.8518 105.405 21.1517L108.468 26.7121V26.8201H106.623L103.792 21.5206ZM100.729 20.108H103.371C104.225 20.108 104.903 19.886 105.405 19.4422C105.912 18.9983 106.166 18.4045 106.166 17.6607C106.166 16.8509 105.924 16.2301 105.441 15.7982C104.963 15.3663 104.27 15.1474 103.362 15.1414H100.729V20.108Z"
        fill="var(--key-color)" />
    <path
        d="M118.259 22.0604C118.259 23.548 117.919 24.7446 117.238 25.6504C116.557 26.5501 115.643 27 114.497 27C113.273 27 112.326 26.5651 111.657 25.6954L111.577 26.8201H110.054V13H111.711V18.1555C112.38 17.3218 113.303 16.9049 114.479 16.9049C115.655 16.9049 116.578 17.3518 117.247 18.2455C117.922 19.1392 118.259 20.3629 118.259 21.9165V22.0604ZM116.602 21.8715C116.602 20.7378 116.384 19.862 115.948 19.2442C115.512 18.6264 114.885 18.3175 114.067 18.3175C112.974 18.3175 112.189 18.8273 111.711 19.847V24.0578C112.219 25.0775 113.01 25.5874 114.085 25.5874C114.879 25.5874 115.497 25.2785 115.939 24.6607C116.381 24.0428 116.602 23.1131 116.602 21.8715Z"
        fill="var(--key-color)" />
    <path
        d="M119.916 21.8625C119.916 20.9087 120.101 20.051 120.472 19.2892C120.848 18.5274 121.367 17.9396 122.03 17.5257C122.699 17.1118 123.461 16.9049 124.315 16.9049C125.634 16.9049 126.7 17.3638 127.512 18.2815C128.331 19.1992 128.74 20.4199 128.74 21.9434V22.0604C128.74 23.0081 128.558 23.8599 128.193 24.6157C127.835 25.3655 127.318 25.9503 126.644 26.3702C125.975 26.7901 125.204 27 124.332 27C123.019 27 121.953 26.5411 121.135 25.6234C120.322 24.7057 119.916 23.491 119.916 21.9794V21.8625ZM121.582 22.0604C121.582 23.1401 121.83 24.0069 122.326 24.6607C122.828 25.3145 123.496 25.6414 124.332 25.6414C125.175 25.6414 125.843 25.3115 126.339 24.6517C126.835 23.9859 127.083 23.0561 127.083 21.8625C127.083 20.7948 126.829 19.931 126.321 19.2712C125.819 18.6054 125.151 18.2725 124.315 18.2725C123.496 18.2725 122.837 18.5994 122.335 19.2532C121.833 19.907 121.582 20.8428 121.582 22.0604Z"
        fill="var(--key-color)" />
    <path
        d="M136.802 26.8201C136.706 26.6281 136.628 26.2862 136.569 25.7943C135.798 26.5981 134.879 27 133.81 27C132.854 27 132.069 26.7301 131.454 26.1902C130.845 25.6444 130.54 24.9546 130.54 24.1208C130.54 23.1071 130.922 22.3213 131.687 21.7635C132.457 21.1997 133.538 20.9177 134.929 20.9177H136.542V20.153C136.542 19.5711 136.369 19.1093 136.022 18.7674C135.676 18.4195 135.165 18.2455 134.491 18.2455C133.899 18.2455 133.404 18.3955 133.004 18.6954C132.603 18.9953 132.403 19.3582 132.403 19.7841H130.737C130.737 19.2982 130.907 18.8303 131.248 18.3805C131.594 17.9246 132.06 17.5647 132.645 17.3008C133.236 17.0368 133.884 16.9049 134.589 16.9049C135.706 16.9049 136.581 17.1868 137.214 17.7506C137.847 18.3085 138.175 19.0793 138.199 20.063V24.5437C138.199 25.4374 138.313 26.1482 138.539 26.6761V26.8201H136.802ZM134.052 25.5514C134.571 25.5514 135.064 25.4165 135.53 25.1465C135.995 24.8766 136.333 24.5257 136.542 24.0938V22.0964H135.243C133.213 22.0964 132.197 22.6932 132.197 23.8869C132.197 24.4087 132.371 24.8166 132.717 25.1105C133.063 25.4045 133.508 25.5514 134.052 25.5514Z"
        fill="var(--key-color)" />
    <path
        d="M145.482 18.5784C145.231 18.5364 144.959 18.5154 144.667 18.5154C143.58 18.5154 142.842 18.9803 142.454 19.91V26.8201H140.797V17.0848H142.409L142.436 18.2095C142.98 17.3398 143.75 16.9049 144.747 16.9049C145.07 16.9049 145.315 16.9469 145.482 17.0308V18.5784Z"
        fill="var(--key-color)" />
    <path
        d="M146.431 21.8715C146.431 20.3779 146.784 19.1782 147.488 18.2725C148.193 17.3608 149.116 16.9049 150.256 16.9049C151.391 16.9049 152.29 17.2948 152.952 18.0746V13H154.61V26.8201H153.087L153.006 25.7763C152.343 26.5921 151.421 27 150.238 27C149.116 27 148.199 26.5381 147.488 25.6144C146.784 24.6907 146.431 23.485 146.431 21.9974V21.8715ZM148.088 22.0604C148.088 23.1641 148.315 24.0278 148.769 24.6517C149.223 25.2755 149.85 25.5874 150.65 25.5874C151.701 25.5874 152.469 25.1135 152.952 24.1658V19.6941C152.457 18.7763 151.695 18.3175 150.668 18.3175C149.856 18.3175 149.223 18.6324 148.769 19.2622C148.315 19.892 148.088 20.8248 148.088 22.0604Z"
        fill="var(--key-color)" />
    <path d="M223.602 15.1414H219.41V26.8201H217.699V15.1414H213.516V13.7198H223.602V15.1414Z"
        fill="var(--key-color)" />
    <path
        d="M226.934 18.2635C227.669 17.3578 228.624 16.9049 229.801 16.9049C231.849 16.9049 232.882 18.0656 232.9 20.3869V26.8201H231.243V20.3779C231.237 19.6761 231.076 19.1572 230.759 18.8213C230.449 18.4854 229.962 18.3175 229.299 18.3175C228.762 18.3175 228.29 18.4614 227.884 18.7494C227.478 19.0373 227.161 19.4152 226.934 19.883V26.8201H225.277V13H226.934V18.2635Z"
        fill="var(--key-color)" />
    <path
        d="M239.404 27C238.09 27 237.021 26.5681 236.197 25.7044C235.373 24.8346 234.961 23.674 234.961 22.2224V21.9165C234.961 20.9507 235.143 20.09 235.507 19.3342C235.877 18.5724 236.391 17.9786 237.048 17.5527C237.711 17.1208 238.427 16.9049 239.198 16.9049C240.458 16.9049 241.437 17.3218 242.136 18.1555C242.834 18.9893 243.184 20.1829 243.184 21.7365V22.4293H236.618C236.642 23.389 236.919 24.1658 237.451 24.7596C237.988 25.3475 238.669 25.6414 239.493 25.6414C240.078 25.6414 240.574 25.5214 240.98 25.2815C241.386 25.0416 241.742 24.7237 242.046 24.3278L243.058 25.1195C242.246 26.3732 241.028 27 239.404 27ZM239.198 18.2725C238.529 18.2725 237.967 18.5184 237.514 19.0103C237.06 19.4961 236.779 20.1799 236.672 21.0617H241.527V20.9357C241.479 20.09 241.252 19.4362 240.846 18.9743C240.44 18.5064 239.89 18.2725 239.198 18.2725Z"
        fill="var(--key-color)" />
    <path
        d="M246.668 17.0848L246.713 18.1645C247.424 17.3248 248.382 16.9049 249.589 16.9049C250.944 16.9049 251.867 17.4267 252.357 18.4704C252.679 18.0026 253.097 17.6247 253.611 17.3368C254.13 17.0488 254.742 16.9049 255.447 16.9049C257.573 16.9049 258.654 18.0356 258.69 20.2969V26.8201H257.032V20.3959C257.032 19.7001 256.874 19.1812 256.558 18.8393C256.241 18.4914 255.71 18.3175 254.963 18.3175C254.348 18.3175 253.838 18.5034 253.431 18.8753C253.025 19.2412 252.789 19.7361 252.724 20.3599V26.8201H251.058V20.4409C251.058 19.0253 250.368 18.3175 248.988 18.3175C247.902 18.3175 247.158 18.7823 246.758 19.7121V26.8201H245.101V17.0848H246.668Z"
        fill="var(--key-color)" />
    <path
        d="M265.22 27C263.906 27 262.837 26.5681 262.013 25.7044C261.189 24.8346 260.777 23.674 260.777 22.2224V21.9165C260.777 20.9507 260.959 20.09 261.323 19.3342C261.693 18.5724 262.207 17.9786 262.864 17.5527C263.527 17.1208 264.243 16.9049 265.014 16.9049C266.274 16.9049 267.253 17.3218 267.952 18.1555C268.651 18.9893 269 20.1829 269 21.7365V22.4293H262.434C262.458 23.389 262.736 24.1658 263.267 24.7596C263.805 25.3475 264.485 25.6414 265.309 25.6414C265.895 25.6414 266.39 25.5214 266.796 25.2815C267.202 25.0416 267.558 24.7237 267.862 24.3278L268.875 25.1195C268.062 26.3732 266.844 27 265.22 27ZM265.014 18.2725C264.345 18.2725 263.784 18.5184 263.33 19.0103C262.876 19.4961 262.595 20.1799 262.488 21.0617H267.343V20.9357C267.295 20.09 267.068 19.4362 266.662 18.9743C266.256 18.5064 265.707 18.2725 265.014 18.2725Z"
        fill="var(--key-color)" />
    <rect x="184" y="7.5" width="1" height="25" fill="var(--key-color)" />
    <g clip-path="url(#clip0_3032_7647)">
        <path
            d="M23 30C17.49 30 13 25.51 13 20C13 14.49 17.49 10 23 10C28.51 10 33 14.04 33 19C33 22.31 30.31 25 27 25H25.23C24.95 25 24.73 25.22 24.73 25.5C24.73 25.62 24.78 25.73 24.86 25.83C25.27 26.3 25.5 26.89 25.5 27.5C25.5 28.88 24.38 30 23 30V30ZM23 12C18.59 12 15 15.59 15 20C15 24.41 18.59 28 23 28C23.28 28 23.5 27.78 23.5 27.5C23.5 27.34 23.42 27.22 23.36 27.15C22.95 26.69 22.73 26.1 22.73 25.5C22.73 24.12 23.85 23 25.23 23H27C29.21 23 31 21.21 31 19C31 15.14 27.41 12 23 12Z"
            fill="var(--main-bg)" />
        <path
            d="M17.5 21C18.3284 21 19 20.3284 19 19.5C19 18.6716 18.3284 18 17.5 18C16.6716 18 16 18.6716 16 19.5C16 20.3284 16.6716 21 17.5 21Z"
            fill="var(--main-bg)" />
        <path
            d="M20.5 17C21.3284 17 22 16.3284 22 15.5C22 14.6716 21.3284 14 20.5 14C19.6716 14 19 14.6716 19 15.5C19 16.3284 19.6716 17 20.5 17Z"
            fill="var(--main-bg)" />
        <path
            d="M25.5 17C26.3284 17 27 16.3284 27 15.5C27 14.6716 26.3284 14 25.5 14C24.6716 14 24 14.6716 24 15.5C24 16.3284 24.6716 17 25.5 17Z"
            fill="var(--main-bg)" />
        <path
            d="M28.5 21C29.3284 21 30 20.3284 30 19.5C30 18.6716 29.3284 18 28.5 18C27.6716 18 27 18.6716 27 19.5C27 20.3284 27.6716 21 28.5 21Z"
            fill="var(--main-bg)" />
    </g>
    <rect x="4" y="45.8257" width="31" height="43" rx="7" fill="var(--key-bg)" />
    <rect x="39.6049" y="45.8257" width="31" height="43" rx="7" fill="var(--key-bg)" />
    <rect x="75.2097" y="45.8257" width="31" height="43" rx="7" fill="var(--key-bg)" />
    <rect x="110.815" y="45.8257" width="31" height="43" rx="7" fill="var(--key-bg)" />
    <rect x="146.419" y="45.8257" width="31" height="43" rx="7" fill="var(--key-bg)" />
    <rect x="182.024" y="45.8257" width="31" height="43" rx="7" fill="var(--key-bg)" />
    <rect x="217.629" y="45.8257" width="31" height="43" rx="7" fill="var(--key-bg)" />
    <rect x="253.234" y="45.8257" width="31" height="43" rx="7" fill="var(--key-bg)" />
    <rect x="288.839" y="45.8257" width="31" height="43" rx="7" fill="var(--key-bg)" />
    <rect x="324.444" y="45.8257" width="31" height="43" rx="7" fill="var(--key-bg)" />
    <rect x="22.0804" y="95.8883" width="31" height="43" rx="7" fill="var(--key-bg)" />
    <rect x="57.6853" y="95.8883" width="31" height="43" rx="7" fill="var(--key-bg)" />
    <rect x="93.2902" y="95.8883" width="31" height="43" rx="7" fill="var(--key-bg)" />
    <rect x="128.895" y="95.8883" width="31" height="43" rx="7" fill="var(--key-bg)" />
    <rect x="164.5" y="95.8883" width="31" height="43" rx="7" fill="var(--key-bg)" />
    <rect x="200.105" y="95.8883" width="31" height="43" rx="7" fill="var(--key-bg)" />
    <rect x="235.71" y="95.8883" width="31" height="43" rx="7" fill="var(--key-bg)" />
    <rect x="271.315" y="95.8883" width="31" height="43" rx="7" fill="var(--key-bg)" />
    <rect x="306.92" y="95.8883" width="31" height="43" rx="7" fill="var(--key-bg)" />
    <rect x="57.6855" y="145.951" width="31" height="43" rx="7" fill="var(--key-bg)" />
    <rect x="93.2903" y="145.951" width="31" height="43" rx="7" fill="var(--key-bg)" />
    <rect x="93" y="196" width="31" height="43" rx="7" fill="var(--key-bg)" />
    <rect x="58" y="196" width="31" height="43" rx="7" fill="var(--second-key-bg)" />
    <rect x="128.895" y="145.951" width="31" height="43" rx="7" fill="var(--key-bg)" />
    <rect x="164" y="146" width="31" height="43" rx="7" fill="var(--key-bg)" />
    <rect x="200.105" y="145.951" width="31" height="43" rx="7" fill="var(--key-bg)" />
    <rect x="235.71" y="145.951" width="31" height="43" rx="7" fill="var(--key-bg)" />
    <rect x="271.315" y="145.951" width="31" height="43" rx="7" fill="var(--key-bg)" />
    <rect x="271" y="196" width="31" height="43" rx="7" fill="var(--second-key-bg)" />
    <rect x="307" y="196" width="48" height="43" rx="7" fill="var(--accent-bg)" />
    <rect x="307" y="146" width="48" height="43" rx="7" fill="var(--second-key-bg)" />
    <rect x="5" y="146" width="48" height="43" rx="7" fill="var(--second-key-bg)" />
    <rect x="5" y="196" width="48" height="43" rx="7" fill="var(--second-key-bg)" />
    <rect x="128.895" y="196.014" width="137.815" height="43" rx="7" fill="var(--key-bg)" />
    <path
        d="M16.1211 220.637C16.1211 219.987 16.2016 219.468 16.3625 219.082C16.5234 218.696 16.8404 218.273 17.3134 217.814C17.7912 217.349 18.0936 217.019 18.2203 216.824C18.4154 216.525 18.5129 216.203 18.5129 215.856C18.5129 215.396 18.3983 215.047 18.1691 214.807C17.9448 214.563 17.6133 214.44 17.1744 214.44C16.7551 214.44 16.4162 214.56 16.1577 214.8C15.9042 215.034 15.7774 215.355 15.7774 215.76H14C14.0098 214.895 14.3023 214.211 14.8777 213.707C15.458 213.204 16.2235 212.952 17.1744 212.952C18.1545 212.952 18.9176 213.201 19.4638 213.7C20.0148 214.198 20.2903 214.895 20.2903 215.79C20.2903 216.587 19.9197 217.371 19.1785 218.144L18.2789 219.031C17.957 219.398 17.7912 219.933 17.7815 220.637H16.1211ZM15.9968 222.917C15.9968 222.629 16.087 222.397 16.2674 222.221C16.4479 222.04 16.6917 221.949 16.9989 221.949C17.3109 221.949 17.5572 222.042 17.7376 222.228C17.918 222.409 18.0082 222.639 18.0082 222.917C18.0082 223.186 17.9205 223.411 17.7449 223.592C17.5694 223.773 17.3207 223.863 16.9989 223.863C16.677 223.863 16.4283 223.773 16.2528 223.592C16.0821 223.411 15.9968 223.186 15.9968 222.917Z"
        fill="var(--key-color)" />
    <path d="M26.606 223.775H24.836V215.203L22.2248 216.098V214.594L26.3793 213.062H26.606V223.775Z"
        fill="var(--key-color)" />
    <path
        d="M37.4678 223.775H30.3071V222.551L33.8545 218.672C34.3665 218.1 34.7298 217.623 34.9443 217.242C35.1638 216.855 35.2735 216.469 35.2735 216.083C35.2735 215.575 35.1296 215.164 34.8419 214.851C34.5591 214.538 34.1763 214.382 33.6936 214.382C33.1182 214.382 32.672 214.558 32.3551 214.91C32.0381 215.262 31.8796 215.743 31.8796 216.354H30.1023C30.1023 215.704 30.2486 215.12 30.5411 214.602C30.8386 214.079 31.2604 213.673 31.8065 213.385C32.3575 213.096 32.9914 212.952 33.7082 212.952C34.742 212.952 35.5563 213.213 36.1512 213.736C36.751 214.255 37.0508 214.973 37.0508 215.892C37.0508 216.425 36.8997 216.985 36.5974 217.572C36.2999 218.153 35.8099 218.816 35.1272 219.559L32.5233 222.353H37.4678V223.775Z"
        fill="var(--key-color)" />
    <path
        d="M40.8762 217.623H41.9587C42.5049 217.618 42.9364 217.476 43.2534 217.198C43.5752 216.919 43.7361 216.516 43.7361 215.988C43.7361 215.479 43.602 215.086 43.3338 214.807C43.0705 214.524 42.6658 214.382 42.1197 214.382C41.6418 214.382 41.2493 214.521 40.9421 214.8C40.6349 215.074 40.4813 215.433 40.4813 215.878H38.7039C38.7039 215.33 38.8477 214.832 39.1354 214.382C39.428 213.932 39.8327 213.582 40.3496 213.333C40.8713 213.079 41.4541 212.952 42.0977 212.952C43.1607 212.952 43.9946 213.221 44.5992 213.758C45.2087 214.291 45.5135 215.034 45.5135 215.988C45.5135 216.467 45.3599 216.919 45.0527 217.344C44.7504 217.765 44.3578 218.083 43.8751 218.298C44.4602 218.498 44.904 218.813 45.2063 219.244C45.5135 219.674 45.6671 220.187 45.6671 220.784C45.6671 221.742 45.3379 222.504 44.6797 223.071C44.0262 223.639 43.1656 223.922 42.0977 223.922C41.0737 223.922 40.235 223.648 39.5816 223.101C38.9282 222.553 38.6015 221.825 38.6015 220.916H40.3789C40.3789 221.385 40.5349 221.766 40.847 222.059C41.1639 222.353 41.5882 222.499 42.1197 222.499C42.6707 222.499 43.1046 222.353 43.4216 222.059C43.7386 221.766 43.897 221.341 43.897 220.784C43.897 220.221 43.7312 219.789 43.3997 219.486C43.0681 219.182 42.5756 219.031 41.9222 219.031H40.8762V217.623Z"
        fill="var(--key-color)" />
    <path
        d="M285.867 224.737C285.867 224.399 285.98 224.125 286.204 223.915C286.433 223.705 286.718 223.6 287.06 223.6C287.406 223.6 287.691 223.705 287.915 223.915C288.145 224.125 288.259 224.399 288.259 224.737C288.259 225.069 288.147 225.34 287.923 225.55C287.698 225.756 287.411 225.858 287.06 225.858C286.713 225.858 286.428 225.756 286.204 225.55C285.98 225.34 285.867 225.069 285.867 224.737Z"
        fill="var(--key-color)" />
    <path
        d="M41.3528 125.657C41.2332 125.418 41.136 124.99 41.0612 124.376C40.0967 125.38 38.9453 125.882 37.6069 125.882C36.4106 125.882 35.4274 125.545 34.6573 124.87C33.8947 124.188 33.5134 123.326 33.5134 122.284C33.5134 121.017 33.9919 120.035 34.9489 119.338C35.9134 118.634 37.2667 118.281 39.0088 118.281H41.0276V117.326C41.0276 116.599 40.8108 116.021 40.3771 115.594C39.9434 115.159 39.3042 114.942 38.4593 114.942C37.7191 114.942 37.0985 115.129 36.5976 115.504C36.0966 115.879 35.8461 116.332 35.8461 116.865H33.7601C33.7601 116.258 33.9732 115.673 34.3994 115.111C34.833 114.541 35.4162 114.091 36.149 113.761C36.8892 113.432 37.7004 113.267 38.5827 113.267C39.9808 113.267 41.0762 113.619 41.8687 114.324C42.6613 115.021 43.0725 115.984 43.1024 117.213V122.813C43.1024 123.93 43.2445 124.818 43.5286 125.478V125.657H41.3528ZM37.9097 124.072C38.5602 124.072 39.1771 123.903 39.7603 123.566C40.3435 123.229 40.7659 122.79 41.0276 122.251V119.754H39.4014C36.8592 119.754 35.5882 120.5 35.5882 121.992C35.5882 122.644 35.805 123.154 36.2387 123.521C36.6723 123.888 37.2294 124.072 37.9097 124.072Z"
        fill="var(--key-color)" />
    <path
        d="M76.7038 122.43C76.7038 121.868 76.4907 121.433 76.0645 121.126C75.6458 120.811 74.9093 120.541 73.8551 120.317C72.8084 120.092 71.9747 119.822 71.3541 119.507C70.741 119.192 70.2849 118.817 69.9858 118.383C69.6943 117.948 69.5485 117.431 69.5485 116.831C69.5485 115.834 69.9672 114.991 70.8046 114.301C71.6494 113.611 72.7261 113.267 74.0346 113.267C75.4103 113.267 76.5243 113.623 77.3767 114.335C78.2365 115.047 78.6665 115.958 78.6665 117.067H76.5804C76.5804 116.497 76.3374 116.006 75.8514 115.594C75.3729 115.182 74.7673 114.976 74.0346 114.976C73.2794 114.976 72.6887 115.141 72.2625 115.47C71.8364 115.8 71.6233 116.231 71.6233 116.763C71.6233 117.266 71.8214 117.644 72.2177 117.899C72.614 118.154 73.328 118.398 74.3598 118.63C75.3991 118.862 76.2402 119.14 76.8832 119.462C77.5262 119.784 78.001 120.174 78.3076 120.631C78.6216 121.081 78.7786 121.632 78.7786 122.284C78.7786 123.371 78.3449 124.244 77.4776 124.904C76.6103 125.556 75.4851 125.882 74.1018 125.882C73.1299 125.882 72.27 125.71 71.5223 125.365C70.7747 125.02 70.1877 124.541 69.7615 123.926C69.3428 123.304 69.1335 122.633 69.1335 121.913H71.2083C71.2457 122.61 71.5223 123.165 72.0382 123.577C72.5616 123.982 73.2495 124.185 74.1018 124.185C74.8869 124.185 75.515 124.027 75.986 123.712C76.4645 123.39 76.7038 122.963 76.7038 122.43Z"
        fill="var(--key-color)" />
    <path
        d="M71.8139 174.02H78.9132V175.718H69.2793V174.188L75.9748 165.272H69.3802V163.552H78.5767V165.025L71.8139 174.02Z"
        fill="var(--key-color)" />
    <path d="M71.6004 227H70.0497L75.9792 211.542H77.5201L71.6004 227Z" fill="var(--key-color)" />
    <path
        d="M109.386 167.993L112.077 163.552H114.5L110.529 169.567L114.623 175.718H112.223L109.419 171.164L106.615 175.718H104.204L108.298 169.567L104.327 163.552H106.727L109.386 167.993Z"
        fill="var(--key-color)" />
    <path
        d="M144.82 174.245C145.561 174.245 146.207 174.02 146.761 173.57C147.314 173.12 147.62 172.558 147.68 171.883H149.643C149.605 172.581 149.366 173.244 148.925 173.874C148.484 174.503 147.893 175.006 147.153 175.38C146.42 175.755 145.643 175.943 144.82 175.943C143.168 175.943 141.852 175.392 140.873 174.29C139.901 173.18 139.415 171.666 139.415 169.747V169.399C139.415 168.214 139.631 167.161 140.065 166.239C140.499 165.317 141.119 164.601 141.927 164.091C142.742 163.582 143.703 163.327 144.809 163.327C146.17 163.327 147.299 163.735 148.196 164.552C149.101 165.369 149.583 166.43 149.643 167.734H147.68C147.62 166.947 147.321 166.303 146.783 165.8C146.252 165.291 145.594 165.036 144.809 165.036C143.755 165.036 142.936 165.418 142.353 166.183C141.777 166.94 141.489 168.038 141.489 169.477V169.871C141.489 171.273 141.777 172.352 142.353 173.109C142.929 173.866 143.751 174.245 144.82 174.245Z"
        fill="var(--key-color)" />
    <path
        d="M179.857 172.895L182.863 163.552H184.983L180.631 175.718H179.05L174.653 163.552H176.773L179.857 172.895Z"
        fill="var(--key-color)" />
    <path
        d="M221.192 169.77C221.192 171.629 220.766 173.124 219.913 174.256C219.061 175.38 217.917 175.943 216.481 175.943C214.949 175.943 213.764 175.399 212.926 174.312L212.825 175.718H210.919V158.447H212.993V164.89C213.831 163.848 214.986 163.327 216.459 163.327C217.932 163.327 219.087 163.885 219.924 165.002C220.769 166.119 221.192 167.648 221.192 169.59V169.77ZM219.117 169.533C219.117 168.117 218.844 167.022 218.298 166.25C217.752 165.478 216.967 165.092 215.943 165.092C214.575 165.092 213.592 165.729 212.993 167.004V172.266C213.629 173.54 214.62 174.177 215.965 174.177C216.96 174.177 217.734 173.791 218.287 173.019C218.84 172.247 219.117 171.085 219.117 169.533Z"
        fill="var(--key-color)" />
    <path
        d="M280.651 163.552L280.707 164.901C281.596 163.852 282.797 163.327 284.307 163.327C286.004 163.327 287.159 163.979 287.772 165.283C288.176 164.699 288.699 164.226 289.342 163.866C289.993 163.507 290.759 163.327 291.642 163.327C294.303 163.327 295.657 164.74 295.702 167.566V175.718H293.627V167.689C293.627 166.82 293.429 166.172 293.032 165.744C292.636 165.309 291.971 165.092 291.036 165.092C290.266 165.092 289.627 165.324 289.118 165.789C288.61 166.246 288.314 166.865 288.232 167.644V175.718H286.146V167.746C286.146 165.977 285.283 165.092 283.555 165.092C282.195 165.092 281.264 165.673 280.763 166.835V175.718H278.688V163.552H280.651Z"
        fill="var(--key-color)" />
    <path
        d="M248.945 163.552L249.012 165.081C249.939 163.911 251.15 163.327 252.646 163.327C255.21 163.327 256.504 164.777 256.526 167.678V175.718H254.451V167.667C254.444 166.79 254.242 166.142 253.846 165.722C253.457 165.302 252.848 165.092 252.018 165.092C251.345 165.092 250.754 165.272 250.246 165.632C249.737 165.992 249.341 166.464 249.057 167.049V175.718H246.982V163.552H248.945Z"
        fill="var(--key-color)" />
    <path
        d="M104.025 119.473C104.025 117.607 104.466 116.108 105.348 114.976C106.23 113.836 107.385 113.267 108.814 113.267C110.234 113.267 111.359 113.754 112.189 114.728V108.387H114.264V125.657H112.358L112.257 124.353C111.427 125.373 110.272 125.882 108.791 125.882C107.385 125.882 106.238 125.305 105.348 124.151C104.466 122.996 104.025 121.49 104.025 119.631V119.473ZM106.099 119.709C106.099 121.089 106.384 122.168 106.952 122.948C107.52 123.727 108.305 124.117 109.307 124.117C110.623 124.117 111.584 123.525 112.189 122.341V116.752C111.569 115.605 110.615 115.032 109.329 115.032C108.313 115.032 107.52 115.425 106.952 116.213C106.384 117 106.099 118.165 106.099 119.709Z"
        fill="var(--key-color)" />
    <path
        d="M142.702 125.657V115.099H140.784V113.491H142.702V112.243C142.702 110.939 143.049 109.931 143.745 109.219C144.44 108.507 145.423 108.151 146.694 108.151C147.173 108.151 147.648 108.214 148.119 108.342L148.006 110.028C147.655 109.961 147.281 109.927 146.885 109.927C146.212 109.927 145.692 110.126 145.326 110.523C144.96 110.913 144.776 111.475 144.776 112.21V113.491H147.367V115.099H144.776V125.657H142.702Z"
        fill="var(--key-color)" />
    <path
        d="M174.973 119.473C174.973 117.577 175.411 116.07 176.285 114.953C177.16 113.829 178.319 113.267 179.762 113.267C181.243 113.267 182.398 113.791 183.228 114.841L183.329 113.491H185.224V125.365C185.224 126.939 184.757 128.18 183.822 129.087C182.895 129.994 181.646 130.447 180.076 130.447C179.201 130.447 178.345 130.26 177.508 129.885C176.67 129.51 176.031 128.997 175.59 128.345L176.667 127.097C177.557 128.199 178.644 128.75 179.93 128.75C180.94 128.75 181.725 128.465 182.286 127.895C182.854 127.325 183.138 126.523 183.138 125.489V124.443C182.308 125.403 181.175 125.882 179.74 125.882C178.319 125.882 177.168 125.309 176.285 124.162C175.411 123.015 174.973 121.452 174.973 119.473ZM177.059 119.709C177.059 121.081 177.34 122.161 177.9 122.948C178.461 123.727 179.246 124.117 180.256 124.117C181.564 124.117 182.525 123.521 183.138 122.329V116.775C182.502 115.613 181.549 115.032 180.278 115.032C179.269 115.032 178.48 115.425 177.912 116.213C177.343 117 177.059 118.165 177.059 119.709Z"
        fill="var(--key-color)" />
    <path
        d="M213.293 114.964C214.213 113.833 215.409 113.267 216.882 113.267C219.447 113.267 220.74 114.717 220.763 117.618V125.657H218.688V117.607C218.68 116.73 218.479 116.081 218.082 115.662C217.693 115.242 217.084 115.032 216.254 115.032C215.581 115.032 214.991 115.212 214.482 115.572C213.974 115.931 213.577 116.404 213.293 116.988V125.657H211.219V108.387H213.293V114.964Z"
        fill="var(--key-color)" />
    <path
        d="M253.77 113.491V127.063C253.77 129.402 252.712 130.571 250.596 130.571C250.14 130.571 249.718 130.504 249.329 130.369V128.705C249.568 128.765 249.882 128.795 250.271 128.795C250.735 128.795 251.086 128.667 251.325 128.412C251.572 128.165 251.695 127.73 251.695 127.108V113.491H253.77ZM251.482 110.264C251.482 109.935 251.583 109.654 251.785 109.421C251.994 109.181 252.297 109.061 252.693 109.061C253.097 109.061 253.404 109.178 253.613 109.41C253.822 109.642 253.927 109.927 253.927 110.264C253.927 110.602 253.822 110.883 253.613 111.108C253.404 111.333 253.097 111.445 252.693 111.445C252.29 111.445 251.987 111.333 251.785 111.108C251.583 110.883 251.482 110.602 251.482 110.264Z"
        fill="var(--key-color)" />
    <path
        d="M285.837 120.024L284.537 121.385V125.657H282.462V108.387H284.537V118.832L285.647 117.494L289.426 113.491H291.95L287.228 118.574L292.499 125.657H290.066L285.837 120.024Z"
        fill="var(--key-color)" />
    <path d="M323.684 125.657H321.609V108.387H323.684V125.657Z" fill="var(--key-color)" />
    <path
        d="M15.5997 68.4119C15.5997 66.5005 16.0371 64.99 16.9119 63.8806C17.7867 62.7637 18.9605 62.2052 20.4335 62.2052C21.869 62.2052 23.0018 62.6887 23.8317 63.6557L23.9214 62.4301H25.828V79.2736H23.7532V73.4717C22.9158 74.3712 21.8017 74.821 20.411 74.821C18.9456 74.821 17.7754 74.2513 16.9007 73.1119C16.0333 71.965 15.5997 70.4471 15.5997 68.5581V68.4119ZM17.6745 68.6481C17.6745 70.0423 17.9661 71.1367 18.5493 71.9313C19.14 72.7259 19.9325 73.1232 20.9269 73.1232C22.1606 73.1232 23.1027 72.5759 23.7532 71.4815V65.5222C23.0952 64.4503 22.1606 63.9143 20.9494 63.9143C19.9475 63.9143 19.1512 64.3154 18.5605 65.1174C17.9698 65.912 17.6745 67.0889 17.6745 68.6481Z"
        fill="var(--key-color)" />
    <path
        d="M59.6927 71.7289L62.0255 62.4301H64.1003L60.5675 74.5961H58.8852L55.9356 65.3761L53.0645 74.5961H51.3822L47.8606 62.4301H49.9242L52.313 71.5378L55.1393 62.4301H56.8104L59.6927 71.7289Z"
        fill="var(--key-color)" />
    <path
        d="M91.9819 74.821C90.337 74.821 88.9986 74.2813 87.9668 73.2019C86.935 72.1149 86.4191 70.6645 86.4191 68.8504V68.4681C86.4191 67.2613 86.6472 66.1856 87.1032 65.2411C87.5668 64.2891 88.2098 63.547 89.0323 63.0148C89.8622 62.4751 90.7594 62.2052 91.7239 62.2052C93.3015 62.2052 94.5277 62.7262 95.4025 63.7682C96.2773 64.8101 96.7147 66.3018 96.7147 68.2433V69.1091H88.4939C88.5238 70.3084 88.8715 71.2791 89.5369 72.0212C90.2099 72.7559 91.0622 73.1232 92.094 73.1232C92.8268 73.1232 93.4473 72.9732 93.9558 72.6734C94.4642 72.3736 94.9091 71.9763 95.2904 71.4815L96.5577 72.471C95.5408 74.0377 94.0156 74.821 91.9819 74.821ZM91.7239 63.9143C90.8865 63.9143 90.1837 64.2217 89.6155 64.8363C89.0472 65.4435 88.6958 66.2981 88.5612 67.4H94.6399V67.2426C94.5801 66.1856 94.296 65.3686 93.7875 64.7914C93.2791 64.2067 92.5912 63.9143 91.7239 63.9143Z"
        fill="var(--key-color)" />
    <path
        d="M129.963 64.2966C129.649 64.2442 129.308 64.2179 128.942 64.2179C127.581 64.2179 126.658 64.7989 126.172 65.9607V74.5961H124.097V62.4301H126.116L126.149 63.8356C126.83 62.7487 127.794 62.2052 129.043 62.2052C129.447 62.2052 129.753 62.2577 129.963 62.3627V64.2966Z"
        fill="var(--key-color)" />
    <path
        d="M163.497 59.4842V62.4301H165.763V64.038H163.497V71.5827C163.497 72.07 163.598 72.4373 163.8 72.6846C164.002 72.9245 164.346 73.0444 164.832 73.0444C165.071 73.0444 165.4 72.9995 165.819 72.9095V74.5961C165.273 74.746 164.742 74.821 164.226 74.821C163.299 74.821 162.6 74.5399 162.129 73.9777C161.658 73.4155 161.422 72.6172 161.422 71.5827V64.038H159.213V62.4301H161.422V59.4842H163.497Z"
        fill="var(--key-color)" />
    <path
        d="M198.422 71.549L201.248 62.4301H203.469L198.59 76.4739C197.835 78.4978 196.635 79.5097 194.99 79.5097L194.598 79.476L193.824 79.3298V77.6432L194.384 77.6882C195.087 77.6882 195.633 77.5458 196.022 77.2609C196.418 76.9761 196.743 76.4551 196.998 75.698L197.457 74.4612L193.128 62.4301H195.394L198.422 71.549Z"
        fill="var(--key-color)" />
    <path
        d="M236.498 73.393C235.691 74.345 234.506 74.821 232.943 74.821C231.649 74.821 230.663 74.4462 229.982 73.6966C229.309 72.9395 228.969 71.8226 228.962 70.3459V62.4301H231.036V70.2897C231.036 72.1337 231.784 73.0557 233.279 73.0557C234.864 73.0557 235.919 72.4635 236.442 71.2791V62.4301H238.517V74.5961H236.543L236.498 73.393Z"
        fill="var(--key-color)" />
    <path
        d="M270.756 74.5961H268.681V62.4301H270.756V74.5961ZM268.513 59.2031C268.513 58.8658 268.614 58.5809 268.816 58.3486C269.025 58.1162 269.332 58 269.735 58C270.139 58 270.446 58.1162 270.655 58.3486C270.864 58.5809 270.969 58.8658 270.969 59.2031C270.969 59.5404 270.864 59.8215 270.655 60.0464C270.446 60.2713 270.139 60.3837 269.735 60.3837C269.332 60.3837 269.025 60.2713 268.816 60.0464C268.614 59.8215 268.513 59.5404 268.513 59.2031Z"
        fill="var(--key-color)" />
    <path
        d="M299.647 68.4007C299.647 67.2088 299.879 66.1369 300.342 65.1849C300.813 64.2329 301.464 63.4983 302.294 62.9811C303.131 62.4639 304.084 62.2052 305.154 62.2052C306.806 62.2052 308.141 62.7787 309.157 63.9256C310.182 65.0725 310.694 66.5979 310.694 68.5019V68.6481C310.694 69.8324 310.466 70.8968 310.01 71.8413C309.561 72.7783 308.914 73.5092 308.07 74.0339C307.232 74.5586 306.268 74.821 305.176 74.821C303.531 74.821 302.196 74.2476 301.172 73.1007C300.155 71.9538 299.647 70.4358 299.647 68.5469V68.4007ZM301.733 68.6481C301.733 69.9973 302.043 71.0805 302.664 71.8976C303.292 72.7146 304.129 73.1232 305.176 73.1232C306.23 73.1232 307.068 72.7109 307.688 71.8863C308.309 71.0543 308.619 69.8924 308.619 68.4007C308.619 67.0664 308.301 65.987 307.666 65.1624C307.038 64.3304 306.2 63.9143 305.154 63.9143C304.129 63.9143 303.303 64.3229 302.675 65.1399C302.047 65.957 301.733 67.1264 301.733 68.6481Z"
        fill="var(--key-color)" />
    <path
        d="M346 68.6481C346 70.4996 345.578 71.9913 344.733 73.1232C343.888 74.2551 342.744 74.821 341.301 74.821C339.828 74.821 338.669 74.3525 337.824 73.4155V79.2736H335.749V62.4301H337.645L337.746 63.7794C338.59 62.73 339.764 62.2052 341.267 62.2052C342.725 62.2052 343.877 62.7562 344.721 63.8581C345.574 64.96 346 66.493 346 68.4569V68.6481ZM343.925 68.4119C343.925 67.0402 343.634 65.957 343.05 65.1624C342.467 64.3678 341.667 63.9706 340.65 63.9706C339.394 63.9706 338.452 64.529 337.824 65.6459V71.459C338.445 72.5685 339.394 73.1232 340.673 73.1232C341.667 73.1232 342.456 72.7296 343.039 71.9425C343.63 71.148 343.925 69.9711 343.925 68.4119Z"
        fill="var(--key-color)" />
    <path d="M31.04 58H29.6289V52.5605L27.9443 53.083V51.9355L30.8887 50.8809H31.04V58Z"
        fill="var(--key-color)" fill-opacity="0.7" />
    <path
        d="M67.9854 58H63.1123V57.0332L65.4121 54.582C65.7279 54.237 65.9606 53.9359 66.1104 53.6787C66.2633 53.4215 66.3398 53.1774 66.3398 52.9463C66.3398 52.6305 66.2601 52.3831 66.1006 52.2041C65.9411 52.0218 65.7132 51.9307 65.417 51.9307C65.098 51.9307 64.8457 52.0413 64.6602 52.2627C64.4779 52.4808 64.3867 52.7689 64.3867 53.127H62.9707C62.9707 52.694 63.0732 52.2985 63.2783 51.9404C63.4867 51.5824 63.7796 51.3024 64.1572 51.1006C64.5348 50.8955 64.9629 50.793 65.4414 50.793C66.1738 50.793 66.7419 50.9688 67.1455 51.3203C67.5524 51.6719 67.7559 52.1683 67.7559 52.8096C67.7559 53.1611 67.6647 53.5192 67.4824 53.8838C67.3001 54.2484 66.9876 54.6732 66.5449 55.1582L64.9287 56.8623H67.9854V58Z"
        fill="var(--key-color)" fill-opacity="0.7" />
    <path
        d="M100.048 53.8203H100.8C101.158 53.8203 101.423 53.7308 101.596 53.5518C101.768 53.3727 101.854 53.1351 101.854 52.8389C101.854 52.5524 101.768 52.3294 101.596 52.1699C101.426 52.0104 101.192 51.9307 100.893 51.9307C100.622 51.9307 100.396 52.0055 100.214 52.1553C100.032 52.3018 99.9404 52.4938 99.9404 52.7314H98.5293C98.5293 52.3604 98.6286 52.0283 98.8271 51.7354C99.029 51.4391 99.3089 51.208 99.667 51.042C100.028 50.876 100.425 50.793 100.858 50.793C101.61 50.793 102.2 50.9736 102.626 51.335C103.052 51.693 103.266 52.1878 103.266 52.8193C103.266 53.1449 103.166 53.4443 102.968 53.7178C102.769 53.9912 102.509 54.2012 102.187 54.3477C102.587 54.4909 102.885 54.7057 103.08 54.9922C103.279 55.2786 103.378 55.6172 103.378 56.0078C103.378 56.6393 103.147 57.1455 102.685 57.5264C102.226 57.9072 101.617 58.0977 100.858 58.0977C100.149 58.0977 99.5677 57.9105 99.1152 57.5361C98.666 57.1618 98.4414 56.667 98.4414 56.0518H99.8525C99.8525 56.3187 99.9518 56.5368 100.15 56.7061C100.352 56.8753 100.6 56.96 100.893 56.96C101.228 56.96 101.49 56.8721 101.679 56.6963C101.871 56.5173 101.967 56.2812 101.967 55.9883C101.967 55.2786 101.576 54.9238 100.795 54.9238H100.048V53.8203Z"
        fill="var(--key-color)" fill-opacity="0.7" />
    <path
        d="M138.787 55.3242H139.593V56.4619H138.787V58H137.376V56.4619H134.461L134.397 55.5732L137.361 50.8906H138.787V55.3242ZM135.804 55.3242H137.376V52.8145L137.283 52.9756L135.804 55.3242Z"
        fill="var(--key-color)" fill-opacity="0.7" />
    <path
        d="M170.322 54.5039L170.732 50.8906H174.717V52.0674H171.89L171.714 53.5957C172.049 53.4167 172.406 53.3271 172.783 53.3271C173.46 53.3271 173.991 53.5371 174.375 53.957C174.759 54.377 174.951 54.9645 174.951 55.7197C174.951 56.1787 174.854 56.5905 174.658 56.9551C174.466 57.3164 174.189 57.598 173.828 57.7998C173.467 57.9984 173.04 58.0977 172.549 58.0977C172.119 58.0977 171.72 58.0114 171.353 57.8389C170.985 57.6631 170.693 57.4173 170.479 57.1016C170.267 56.7858 170.155 56.4261 170.142 56.0225H171.538C171.567 56.3187 171.67 56.5498 171.846 56.7158C172.025 56.8786 172.257 56.96 172.544 56.96C172.863 56.96 173.109 56.846 173.281 56.6182C173.454 56.387 173.54 56.0615 173.54 55.6416C173.54 55.238 173.441 54.9287 173.242 54.7139C173.044 54.499 172.762 54.3916 172.397 54.3916C172.062 54.3916 171.79 54.4795 171.582 54.6553L171.445 54.7822L170.322 54.5039Z"
        fill="var(--key-color)" fill-opacity="0.7" />
    <path
        d="M209.94 50.8174V51.9795H209.804C209.166 51.9893 208.651 52.1553 208.261 52.4775C207.873 52.7998 207.641 53.2474 207.562 53.8203C207.94 53.4362 208.417 53.2441 208.993 53.2441C209.612 53.2441 210.103 53.4655 210.468 53.9082C210.832 54.3509 211.015 54.9336 211.015 55.6562C211.015 56.1185 210.914 56.5368 210.712 56.9111C210.513 57.2855 210.23 57.5768 209.862 57.7852C209.498 57.9935 209.084 58.0977 208.622 58.0977C207.873 58.0977 207.268 57.8372 206.806 57.3164C206.347 56.7956 206.117 56.1006 206.117 55.2314V54.7236C206.117 53.9521 206.262 53.2718 206.552 52.6826C206.845 52.0902 207.263 51.6328 207.807 51.3105C208.354 50.985 208.987 50.8206 209.706 50.8174H209.94ZM208.563 54.377C208.336 54.377 208.129 54.4372 207.943 54.5576C207.758 54.6748 207.621 54.8311 207.533 55.0264V55.4561C207.533 55.9281 207.626 56.2975 207.812 56.5645C207.997 56.8281 208.257 56.96 208.593 56.96C208.896 56.96 209.14 56.8411 209.325 56.6035C209.514 56.3626 209.608 56.0518 209.608 55.6709C209.608 55.2835 209.514 54.971 209.325 54.7334C209.136 54.4958 208.882 54.377 208.563 54.377Z"
        fill="var(--key-color)" fill-opacity="0.7" />
    <path d="M246.446 51.6816L243.697 58H242.208L244.962 52.0332H241.427V50.8906H246.446V51.6816Z"
        fill="var(--key-color)" fill-opacity="0.7" />
    <path
        d="M281.746 52.7803C281.746 53.1253 281.66 53.4313 281.487 53.6982C281.315 53.9652 281.077 54.1784 280.774 54.3379C281.119 54.5039 281.393 54.7334 281.595 55.0264C281.797 55.3161 281.897 55.6579 281.897 56.0518C281.897 56.6833 281.683 57.1829 281.253 57.5508C280.823 57.9154 280.239 58.0977 279.5 58.0977C278.761 58.0977 278.175 57.9137 277.742 57.5459C277.309 57.1781 277.093 56.68 277.093 56.0518C277.093 55.6579 277.194 55.3145 277.396 55.0215C277.597 54.7285 277.869 54.5007 278.211 54.3379C277.908 54.1784 277.671 53.9652 277.498 53.6982C277.329 53.4313 277.244 53.1253 277.244 52.7803C277.244 52.1748 277.446 51.693 277.85 51.335C278.253 50.9736 278.802 50.793 279.495 50.793C280.185 50.793 280.732 50.972 281.136 51.3301C281.543 51.6849 281.746 52.1683 281.746 52.7803ZM280.481 55.9492C280.481 55.64 280.392 55.3926 280.213 55.207C280.034 55.0215 279.793 54.9287 279.49 54.9287C279.191 54.9287 278.951 55.0215 278.772 55.207C278.593 55.3893 278.504 55.6367 278.504 55.9492C278.504 56.252 278.592 56.4961 278.768 56.6816C278.943 56.8672 279.188 56.96 279.5 56.96C279.806 56.96 280.045 56.8704 280.218 56.6914C280.394 56.5124 280.481 56.265 280.481 55.9492ZM280.335 52.8486C280.335 52.5719 280.262 52.3506 280.115 52.1846C279.969 52.0153 279.762 51.9307 279.495 51.9307C279.231 51.9307 279.026 52.012 278.88 52.1748C278.733 52.3376 278.66 52.5622 278.66 52.8486C278.66 53.1318 278.733 53.3597 278.88 53.5322C279.026 53.7048 279.233 53.791 279.5 53.791C279.767 53.791 279.972 53.7048 280.115 53.5322C280.262 53.3597 280.335 53.1318 280.335 52.8486Z"
        fill="var(--key-color)" fill-opacity="0.7" />
    <path
        d="M315.913 55.1582C315.545 55.5195 315.116 55.7002 314.624 55.7002C313.996 55.7002 313.493 55.4854 313.115 55.0557C312.738 54.6227 312.549 54.04 312.549 53.3076C312.549 52.8421 312.65 52.4157 312.852 52.0283C313.057 51.6377 313.341 51.335 313.706 51.1201C314.071 50.902 314.481 50.793 314.937 50.793C315.405 50.793 315.822 50.9102 316.187 51.1445C316.551 51.3789 316.834 51.7158 317.036 52.1553C317.238 52.5947 317.34 53.0977 317.344 53.6641V54.1865C317.344 55.3714 317.049 56.3024 316.46 56.9795C315.871 57.6566 315.036 58.0179 313.955 58.0635L313.608 58.0684V56.8916L313.921 56.8867C315.148 56.8314 315.812 56.2552 315.913 55.1582ZM314.971 54.6211C315.199 54.6211 315.394 54.5625 315.557 54.4453C315.723 54.3281 315.848 54.1865 315.933 54.0205V53.4395C315.933 52.9609 315.841 52.5898 315.659 52.3262C315.477 52.0625 315.233 51.9307 314.927 51.9307C314.644 51.9307 314.411 52.0609 314.229 52.3213C314.046 52.5785 313.955 52.9023 313.955 53.293C313.955 53.6803 314.043 53.9993 314.219 54.25C314.398 54.4974 314.648 54.6211 314.971 54.6211Z"
        fill="var(--key-color)" fill-opacity="0.7" />
    <path
        d="M353.397 55.0605C353.397 56.0436 353.194 56.7956 352.787 57.3164C352.38 57.8372 351.785 58.0977 351 58.0977C350.225 58.0977 349.633 57.8421 349.223 57.3311C348.812 56.82 348.603 56.0876 348.593 55.1338V53.8252C348.593 52.8324 348.798 52.0788 349.208 51.5645C349.621 51.0501 350.215 50.793 350.99 50.793C351.765 50.793 352.357 51.0485 352.768 51.5596C353.178 52.0674 353.388 52.7982 353.397 53.752V55.0605ZM351.986 53.625C351.986 53.0358 351.905 52.6077 351.742 52.3408C351.583 52.0706 351.332 51.9355 350.99 51.9355C350.658 51.9355 350.412 52.0641 350.253 52.3213C350.097 52.5752 350.014 52.974 350.004 53.5176V55.2461C350.004 55.8255 350.082 56.2568 350.238 56.54C350.398 56.82 350.652 56.96 351 56.96C351.345 56.96 351.594 56.8249 351.747 56.5547C351.9 56.2845 351.98 55.8711 351.986 55.3145V53.625Z"
        fill="var(--key-color)" fill-opacity="0.7" />
    <g clip-path="url(#clip1_3032_7647)">
        <g clip-path="url(#clip2_3032_7647)">
            <path fill-rule="evenodd" clip-rule="evenodd"
                d="M328.707 164.293C329.098 163.902 329.731 163.902 330.121 164.293L336.707 170.879C337.098 171.269 337.098 171.902 336.707 172.293C336.317 172.683 335.683 172.683 335.293 172.293L328.707 165.707C328.317 165.316 328.317 164.683 328.707 164.293Z"
                fill="var(--key-color)" />
            <path fill-rule="evenodd" clip-rule="evenodd"
                d="M336.293 164.293C335.902 163.902 335.269 163.902 334.879 164.293L328.293 170.879C327.902 171.269 327.902 171.902 328.293 172.293C328.683 172.683 329.317 172.683 329.707 172.293L336.293 165.707C336.683 165.316 336.683 164.683 336.293 164.293Z"
                fill="var(--key-color)" />
            <path fill-rule="evenodd" clip-rule="evenodd"
                d="M325.585 160L320.385 168L325.585 176H340C340.552 176 341 175.552 341 175V161C341 160.448 340.552 160 340 160H325.585ZM324.5 178L318 168L324.5 158H340C341.657 158 343 159.343 343 161V175C343 176.657 341.657 178 340 178H324.5Z"
                fill="var(--key-color)" />
        </g>
    </g>
    <g clip-path="url(#clip3_3032_7647)">
        <g clip-path="url(#clip4_3032_7647)">
            <path
                d="M35.0556 169H34.0556V170V175C34.0556 175.552 33.6079 176 33.0556 176H25C24.4477 176 24 175.552 24 175V170V169H23H19.7069C18.8248 169 18.3748 167.941 18.9871 167.306L28.5253 157.414L38.7438 167.281C39.3909 167.905 38.9486 169 38.0492 169H35.0556Z"
                stroke="var(--key-color)" stroke-width="2" stroke-linecap="round" />
        </g>
    </g>
    <path
        d="M105.531 220.016C106.313 221.328 107.469 221.984 109 221.984C110.531 221.984 111.688 221.328 112.469 220.016H114.109C113.703 221.047 113.031 221.891 112.094 222.547C111.188 223.172 110.156 223.484 109 223.484C107.844 223.484 106.797 223.172 105.859 222.547C104.953 221.891 104.297 221.047 103.891 220.016H105.531ZM103.328 223.672C104.922 225.234 106.813 226.016 109 226.016C111.188 226.016 113.063 225.234 114.625 223.672C116.219 222.078 117.016 220.187 117.016 218C117.016 215.812 116.219 213.937 114.625 212.375C113.063 210.781 111.188 209.984 109 209.984C106.813 209.984 104.922 210.781 103.328 212.375C101.766 213.937 100.984 215.812 100.984 218C100.984 220.187 101.766 222.078 103.328 223.672ZM101.922 210.969C103.891 209 106.25 208.016 109 208.016C111.75 208.016 114.094 209 116.031 210.969C118 212.906 118.984 215.25 118.984 218C118.984 220.75 118 223.109 116.031 225.078C114.094 227.016 111.75 227.984 109 227.984C106.25 227.984 103.891 227.016 101.922 225.078C99.9844 223.109 99.0156 220.75 99.0156 218C99.0156 215.25 99.9844 212.906 101.922 210.969ZM104.406 216.594C104.125 216.281 103.984 215.922 103.984 215.516C103.984 215.109 104.125 214.766 104.406 214.484C104.719 214.172 105.078 214.016 105.484 214.016C105.891 214.016 106.234 214.172 106.516 214.484C106.828 214.766 106.984 215.109 106.984 215.516C106.984 215.922 106.828 216.281 106.516 216.594C106.234 216.875 105.891 217.016 105.484 217.016C105.078 217.016 104.719 216.875 104.406 216.594ZM111.438 216.594C111.156 216.281 111.016 215.922 111.016 215.516C111.016 215.109 111.156 214.766 111.438 214.484C111.75 214.172 112.109 214.016 112.516 214.016C112.922 214.016 113.266 214.172 113.547 214.484C113.859 214.766 114.016 215.109 114.016 215.516C114.016 215.922 113.859 216.281 113.547 216.594C113.266 216.875 112.922 217.016 112.516 217.016C112.109 217.016 111.75 216.875 111.438 216.594Z"
        fill="var(--key-color)" />
    <path
        d="M337.984 212.984H340V218.984H324.812L328.422 222.594L327.016 224L321.016 218L327.016 212L328.422 213.406L324.812 217.016H337.984V212.984Z"
        fill="var(--main-bg)" />
    <path
        d="M167.116 212.068V216.856H169.928C170.637 216.856 171.239 216.628 171.733 216.172C172.227 215.703 172.474 215.127 172.474 214.443C172.474 213.81 172.24 213.259 171.771 212.79C171.315 212.309 170.739 212.068 170.042 212.068H167.116ZM167.116 224H165.368V210.396H170.004C171.182 210.396 172.183 210.789 173.006 211.574C173.842 212.347 174.26 213.303 174.26 214.443C174.26 215.38 173.95 216.216 173.329 216.951C172.721 217.673 171.948 218.135 171.011 218.338L170.973 218.395L174.792 223.924V224H172.721L169.054 218.49H167.116V224ZM180.969 224.304C180.285 224.304 179.658 224.158 179.088 223.867C178.531 223.576 178.1 223.189 177.796 222.708H177.72V224H176.048V210.396H177.796V214.69L177.72 215.982H177.796C178.1 215.501 178.531 215.114 179.088 214.823C179.658 214.532 180.285 214.386 180.969 214.386C182.198 214.386 183.237 214.867 184.085 215.83C184.959 216.805 185.396 217.977 185.396 219.345C185.396 220.726 184.959 221.897 184.085 222.86C183.237 223.823 182.198 224.304 180.969 224.304ZM180.684 222.708C181.52 222.708 182.223 222.391 182.793 221.758C183.363 221.137 183.648 220.333 183.648 219.345C183.648 218.37 183.363 217.565 182.793 216.932C182.223 216.299 181.52 215.982 180.684 215.982C179.836 215.982 179.126 216.299 178.556 216.932C177.999 217.565 177.72 218.37 177.72 219.345C177.72 220.333 177.999 221.144 178.556 221.777C179.126 222.398 179.836 222.708 180.684 222.708ZM186.464 219.345C186.464 217.914 186.913 216.729 187.813 215.792C188.725 214.855 189.871 214.386 191.252 214.386C192.632 214.386 193.772 214.855 194.672 215.792C195.584 216.729 196.04 217.914 196.04 219.345C196.04 220.789 195.584 221.973 194.672 222.898C193.772 223.835 192.632 224.304 191.252 224.304C189.871 224.304 188.725 223.835 187.813 222.898C186.913 221.961 186.464 220.776 186.464 219.345ZM188.212 219.345C188.212 220.346 188.503 221.156 189.086 221.777C189.668 222.398 190.39 222.708 191.252 222.708C192.113 222.708 192.835 222.398 193.418 221.777C194 221.156 194.292 220.346 194.292 219.345C194.292 218.357 194 217.553 193.418 216.932C192.822 216.299 192.1 215.982 191.252 215.982C190.403 215.982 189.681 216.299 189.086 216.932C188.503 217.553 188.212 218.357 188.212 219.345ZM198.9 221.15C198.9 221.606 199.09 221.986 199.47 222.29C199.863 222.594 200.319 222.746 200.838 222.746C201.573 222.746 202.225 222.474 202.795 221.929C203.378 221.384 203.669 220.745 203.669 220.01C203.125 219.579 202.365 219.364 201.389 219.364C200.68 219.364 200.085 219.535 199.603 219.877C199.135 220.219 198.9 220.643 198.9 221.15ZM201.161 214.386C202.453 214.386 203.473 214.734 204.22 215.431C204.968 216.115 205.341 217.059 205.341 218.262V224H203.669V222.708H203.593C202.871 223.772 201.909 224.304 200.705 224.304C199.679 224.304 198.818 224 198.121 223.392C197.437 222.784 197.095 222.024 197.095 221.112C197.095 220.149 197.456 219.383 198.178 218.813C198.913 218.243 199.888 217.958 201.104 217.958C202.143 217.958 202.998 218.148 203.669 218.528V218.129C203.669 217.521 203.429 217.008 202.947 216.59C202.466 216.159 201.902 215.944 201.256 215.944C200.281 215.944 199.508 216.356 198.938 217.179L197.399 216.21C198.248 214.994 199.502 214.386 201.161 214.386ZM209.061 224H207.313V214.69H208.985V216.21H209.061C209.238 215.716 209.599 215.298 210.144 214.956C210.701 214.601 211.246 214.424 211.778 214.424C212.285 214.424 212.715 214.5 213.07 214.652L212.538 216.343C212.323 216.254 211.981 216.21 211.512 216.21C210.853 216.21 210.277 216.476 209.783 217.008C209.302 217.54 209.061 218.161 209.061 218.87V224ZM217.82 222.708C218.682 222.708 219.385 222.398 219.929 221.777C220.499 221.156 220.784 220.346 220.784 219.345C220.784 218.37 220.499 217.565 219.929 216.932C219.372 216.299 218.669 215.982 217.82 215.982C216.984 215.982 216.281 216.299 215.711 216.932C215.141 217.565 214.856 218.37 214.856 219.345C214.856 220.333 215.141 221.137 215.711 221.758C216.281 222.391 216.984 222.708 217.82 222.708ZM217.535 224.304C216.319 224.304 215.274 223.823 214.4 222.86C213.539 221.885 213.108 220.713 213.108 219.345C213.108 217.977 213.539 216.805 214.4 215.83C215.274 214.867 216.319 214.386 217.535 214.386C218.219 214.386 218.84 214.532 219.397 214.823C219.967 215.114 220.404 215.501 220.708 215.982H220.784L220.708 214.69V210.396H222.456V224H220.784V222.708H220.708C220.404 223.189 219.967 223.576 219.397 223.867C218.84 224.158 218.219 224.304 217.535 224.304Z"
        fill="var(--key-color)" />
</svg>